<?xml version="1.0" standalone="no"?><!DOCTYPE svg PUBLIC "-//W3C//DTD SVG 1.1//EN" "http://www.w3.org/Graphics/SVG/1.1/DTD/svg11.dtd"><svg t="1601128295082" class="icon" viewBox="0 0 1024 1024" version="1.1" xmlns="http://www.w3.org/2000/svg" p-id="1201" xmlns:xlink="http://www.w3.org/1999/xlink" width="200" height="200"><defs><style type="text/css"></style></defs><path d="M946.38 712.4c-9.91 6.14-22.92 3.08-29.06-6.83l-21.12-34.1c-6.14-9.91-3.08-22.92 6.83-29.06 9.91-6.14 22.92-3.08 29.06 6.83l21.12 34.1c6.14 9.91 3.08 22.92-6.83 29.06z" fill="#333333" p-id="1202"></path><path d="M313.42 163.498l52.487 16.675-21.79 68.585-52.486-16.675z" fill="#FFE944" p-id="1203"></path><path d="M101.81 714.87c31.53 58.43 80.7 105.21 133.99 143.95 89.52 65.08 209.94 105.14 320.89 101.13 117.39-4.27 233.49-48.12 324.12-124.45 26.16-22.01 50.47-60.88 56.97-100 3.9-23.33 1.45-46.72-10.66-66.73-36.24-59.79-158.42-29.68-211.12-24.49-77.98 7.69-154.65 0.13-227.92-29.48-52.71-21.32-103.57-54.89-130.1-105.95-35.66-68.7-20.11-152.68 2.53-226.88 6.56-21.55 10.03-51.8-10.48-60.36-3.34-1.41-6.91-1.91-10.56-1.94-3.38-0.07-6.81 0.32-10.15 0.79-81.76 11.27-152.21 68.81-196.95 139.42-65.33 103.1-91.01 243.01-30.56 354.99" fill="#FFEB8E" p-id="1204"></path><path d="M101.81 714.87c31.53 58.43 80.7 105.21 133.99 143.95 89.52 65.08 209.94 105.14 320.89 101.13 117.39-4.27 233.49-48.12 324.12-124.45 26.16-22.01 50.47-60.88 56.97-100-13.26 14.22-29.03 26.64-44.96 37.24-141.93 94.5-332.82 107.15-485.56 32.17-94.59-46.44-177.16-130.56-196.27-235.69-23-126.45 47.93-249.87 128.5-349.53-3.38-0.07-6.8 0.32-10.15 0.79-81.76 11.27-152.22 68.81-196.95 139.42-65.35 103.08-91.03 242.99-30.58 354.97M408.19 184.84h-140.7c-33.43 0-60.53-27.1-60.53-60.53s27.1-60.53 60.53-60.53h140.7c33.43 0 60.53 27.1 60.53 60.53s-27.1 60.53-60.53 60.53z" fill="#FFE944" p-id="1205"></path></svg>