<?xml version="1.0" standalone="no"?><!DOCTYPE svg PUBLIC "-//W3C//DTD SVG 1.1//EN" "http://www.w3.org/Graphics/SVG/1.1/DTD/svg11.dtd"><svg height="1200" node-id="1" sillyvg="true" template-height="1200" template-width="1323" version="1.1" viewBox="0 0 1323 1200" width="1323" xmlns="http://www.w3.org/2000/svg" xmlns:xlink="http://www.w3.org/1999/xlink"><defs node-id="63"></defs><g node-id="95"><g node-id="96"><path d="M 1322.10 1099.40 L 1321.80 1102.30 L 1320.90 1105.30 L 1319.40 1108.30 L 1317.10 1111.50 L 1314.10 1114.80 L 1310.00 1118.30 L 1305.30 1121.60 L 1299.60 1125.10 L 1292.60 1128.70 L 1284.40 1132.50 L 1274.60 1136.30 L 1263.10 1140.40 L 1249.90 1144.50 L 1234.70 1148.70 L 1217.30 1153.00 L 1182.10 1160.40 L 1139.50 1167.70 L 1091.10 1174.50 L 1038.10 1180.40 L 981.50 1185.50 L 922.60 1189.60 L 860.70 1192.70 L 796.80 1194.80 L 731.90 1195.90 L 698.70 1196.00 L 665.60 1195.90 L 600.60 1194.80 L 536.70 1192.70 L 474.90 1189.60 L 416.00 1185.50 L 359.30 1180.40 L 306.40 1174.50 L 258.00 1167.70 L 215.40 1160.40 L 180.10 1153.00 L 162.80 1148.70 L 147.60 1144.50 L 134.40 1140.40 L 122.90 1136.30 L 113.10 1132.50 L 104.80 1128.70 L 97.90 1125.10 L 92.20 1121.60 L 87.50 1118.30 L 83.40 1114.80 L 80.30 1111.50 L 78.10 1108.30 L 76.60 1105.30 L 75.70 1102.30 L 75.40 1099.40 L 75.70 1096.40 L 76.60 1093.50 L 78.10 1090.40 L 80.30 1087.20 L 83.40 1083.90 L 87.50 1080.40 L 92.20 1077.10 L 97.90 1073.60 L 104.80 1070.00 L 113.10 1066.30 L 122.90 1062.40 L 134.40 1058.30 L 147.60 1054.20 L 162.80 1050.00 L 180.10 1045.70 L 215.40 1038.30 L 258.00 1031.00 L 306.40 1024.30 L 359.30 1018.30 L 416.00 1013.20 L 474.90 1009.20 L 536.70 1006.00 L 600.60 1003.90 L 665.60 1002.80 L 698.70 1002.70 L 731.90 1002.80 L 796.80 1003.90 L 860.70 1006.00 L 922.60 1009.20 L 981.50 1013.20 L 1038.10 1018.30 L 1091.10 1024.30 L 1139.50 1031.00 L 1182.10 1038.30 L 1217.30 1045.70 L 1234.70 1050.00 L 1249.90 1054.20 L 1263.10 1058.30 L 1274.60 1062.40 L 1284.40 1066.30 L 1292.60 1070.00 L 1299.60 1073.60 L 1305.30 1077.10 L 1310.00 1080.40 L 1314.10 1083.90 L 1317.10 1087.20 L 1319.40 1090.40 L 1320.90 1093.50 L 1321.80 1096.40 L 1322.10 1099.40 Z" fill="#6e6e96" fill-opacity="0.1" fill-rule="nonzero" group-id="1,2" id="Oval" node-id="9" stroke="none" target-height="193.29999" target-width="1246.7" target-x="75.4" target-y="1002.7"></path></g><path d="M 303.80 345.50 L 298.30 332.10 L 293.20 317.40 L 288.00 299.30 L 285.80 289.50 L 284.00 279.10 L 282.60 265.20 L 282.60 251.40 L 283.20 244.70 L 284.20 238.20 L 286.90 228.80 L 290.80 220.20 L 293.30 216.20 L 296.10 212.40 L 299.40 208.90 L 303.20 205.70 L 307.20 202.90 L 311.70 200.30 L 316.80 198.00 L 322.60 196.10 L 177.90 157.20 L 188.40 172.30 L 198.60 189.10 L 204.00 199.00 L 212.90 217.80 L 219.10 234.00 L 221.70 242.40 L 223.80 250.90 L 225.50 259.40 L 226.30 265.90 L 226.90 278.60 L 226.70 284.90 L 225.90 291.10 L 224.70 297.20 L 223.00 303.20 L 220.70 309.00 L 218.60 313.50 L 216.00 317.90 L 213.00 322.10 L 209.60 326.30 L 205.70 330.50 L 201.60 334.10 L 197.00 337.70 L 191.90 341.20 L 186.10 344.50 L 179.60 347.80 L 303.80 345.50 Z" fill="#f7e2cd" fill-rule="nonzero" group-id="1" id="Shape" node-id="10" stroke="none" target-height="190.59999" target-width="144.70001" target-x="177.9" target-y="157.2"></path><g node-id="97"><path d="M 223.20 248.60 L 217.80 232.70 L 212.80 219.90 L 207.80 208.10 L 203.20 198.60 L 198.60 189.90 L 194.50 182.90 L 186.80 170.90 L 189.50 155.50 L 322.60 196.10 L 316.60 198.10 L 311.20 200.40 L 306.50 203.00 L 302.40 205.80 L 298.50 209.00 L 295.10 212.50 L 292.10 216.20 L 289.50 220.10 L 285.50 228.60 L 282.80 237.80 L 281.70 244.20 L 281.00 250.80 L 280.90 257.60 L 281.80 271.30 L 282.70 278.30 L 284.70 288.50 L 287.10 298.50 L 283.70 286.00 L 279.60 273.40 L 274.20 259.10 L 271.10 251.90 L 267.70 245.10 L 262.70 236.80 L 257.30 230.20 L 254.50 227.70 L 251.80 225.90 L 249.50 224.90 L 247.30 224.40 L 245.00 224.30 L 242.70 224.60 L 240.60 225.40 L 238.30 226.70 L 235.80 228.70 L 230.90 234.40 L 226.00 242.80 L 223.20 248.60 Z" fill="#6e6e96" fill-opacity="0.15" fill-rule="nonzero" group-id="1,3" id="Shape" node-id="12" stroke="none" target-height="143" target-width="135.8" target-x="186.8" target-y="155.5"></path></g><path d="M 371.90 108.10 L 371.70 114.90 L 371.00 121.60 L 370.00 128.10 L 368.50 134.50 L 366.60 140.70 L 363.80 148.30 L 360.40 155.50 L 356.40 162.40 L 352.00 169.00 L 347.00 175.30 L 341.70 181.10 L 335.90 186.40 L 329.60 191.40 L 323.00 195.80 L 316.10 199.80 L 308.90 203.20 L 301.30 206.00 L 295.10 207.90 L 288.70 209.40 L 282.20 210.40 L 275.50 211.10 L 268.70 211.30 L 261.80 211.10 L 255.10 210.40 L 248.60 209.40 L 242.20 207.90 L 236.00 206.00 L 228.40 203.20 L 221.20 199.80 L 214.30 195.80 L 207.70 191.40 L 201.50 186.40 L 195.70 181.10 L 190.30 175.30 L 185.30 169.00 L 180.90 162.40 L 177.00 155.50 L 173.60 148.30 L 170.70 140.70 L 168.80 134.50 L 167.40 128.10 L 166.30 121.60 L 165.70 114.90 L 165.40 108.10 L 165.70 101.20 L 166.30 94.50 L 167.40 88.00 L 168.80 81.60 L 170.70 75.40 L 173.60 67.80 L 177.00 60.60 L 180.90 53.70 L 185.30 47.10 L 190.30 40.90 L 195.70 35.10 L 201.50 29.70 L 207.70 24.70 L 214.30 20.30 L 221.20 16.40 L 228.40 13.00 L 236.00 10.10 L 242.20 8.20 L 248.60 6.80 L 255.10 5.70 L 261.80 5.10 L 268.70 4.80 L 275.50 5.10 L 282.20 5.70 L 288.70 6.80 L 295.10 8.20 L 301.30 10.10 L 308.90 13.00 L 316.10 16.40 L 323.00 20.30 L 329.60 24.70 L 335.90 29.70 L 341.70 35.10 L 347.00 40.90 L 352.00 47.10 L 356.40 53.70 L 360.40 60.60 L 363.80 67.80 L 366.60 75.40 L 368.50 81.60 L 370.00 88.00 L 371.00 94.50 L 371.70 101.20 L 371.90 108.10 Z" fill="#f0f0ff" fill-rule="nonzero" group-id="1" id="Oval" node-id="13" stroke="none" target-height="206.5" target-width="206.5" target-x="165.4" target-y="4.8"></path><path d="M 261.20 115.80 L 260.90 118.80 L 259.40 124.40 L 258.10 127.00 L 255.90 130.10 L 253.30 132.70 L 250.20 134.90 L 247.60 136.20 L 242.00 137.80 L 238.90 138.00 L 235.90 137.80 L 230.30 136.20 L 227.70 134.90 L 224.60 132.70 L 222.00 130.10 L 219.80 127.00 L 217.50 121.70 L 216.90 118.80 L 216.70 115.80 L 217.50 109.80 L 219.80 104.50 L 222.00 101.40 L 224.60 98.80 L 227.70 96.60 L 230.30 95.30 L 235.90 93.80 L 238.90 93.50 L 242.00 93.80 L 247.60 95.30 L 250.20 96.60 L 253.30 98.80 L 255.90 101.40 L 258.10 104.50 L 259.40 107.10 L 260.90 112.70 L 261.20 115.80 Z" fill="#6e6e96" fill-rule="nonzero" group-id="1" id="Oval" node-id="14" stroke="none" target-height="44.5" target-width="44.500015" target-x="216.7" target-y="93.5"></path><path d="M 419.40 420.40 L 419.10 405.90 L 419.60 390.40 L 421.40 371.60 L 422.90 361.60 L 425.00 351.40 L 428.70 337.90 L 433.60 325.00 L 436.60 318.90 L 440.00 313.30 L 445.80 305.50 L 452.60 298.80 L 456.30 296.00 L 460.30 293.60 L 464.70 291.50 L 469.40 289.80 L 474.10 288.60 L 479.20 287.90 L 484.80 287.60 L 490.90 287.90 L 370.10 199.30 L 374.80 221.70 L 377.40 239.50 L 378.40 249.30 L 379.00 259.30 L 379.10 269.20 L 378.80 275.90 L 377.20 288.10 L 375.90 294.00 L 374.10 299.30 L 372.00 304.10 L 370.00 307.50 L 367.80 310.40 L 365.20 313.00 L 362.40 315.10 L 359.30 316.80 L 355.80 318.10 L 351.90 318.90 L 347.40 319.20 L 419.40 420.40 Z" fill="#f7e2cd" fill-rule="nonzero" group-id="1" id="Shape" node-id="15" stroke="none" target-height="221.09999" target-width="143.5" target-x="347.4" target-y="199.3"></path><g node-id="98"><path d="M 374.30 298.90 L 375.80 294.10 L 377.10 288.80 L 378.00 282.90 L 378.80 274.00 L 379.10 264.30 L 378.90 254.60 L 378.20 244.80 L 376.20 226.30 L 373.70 210.50 L 371.50 199.30 L 381.50 201.90 L 490.90 287.90 L 484.60 287.60 L 478.80 287.80 L 473.50 288.50 L 468.60 289.60 L 463.80 291.30 L 459.30 293.20 L 455.20 295.60 L 451.40 298.30 L 444.60 304.80 L 438.70 312.40 L 435.40 317.90 L 432.40 323.90 L 429.80 330.20 L 425.70 343.30 L 424.10 350.10 L 422.20 360.40 L 420.80 370.50 L 421.60 357.50 L 421.80 344.00 L 421.30 328.40 L 420.60 320.50 L 419.50 312.80 L 417.30 303.00 L 414.20 294.70 L 412.30 291.30 L 410.20 288.50 L 408.30 286.70 L 406.20 285.40 L 404.00 284.40 L 401.60 283.90 L 399.20 283.80 L 396.50 284.10 L 393.40 285.10 L 389.80 286.70 L 386.70 288.50 L 378.90 294.50 L 374.30 298.90 Z" fill="#6e6e96" fill-opacity="0.15" fill-rule="nonzero" group-id="1,4" id="Shape" node-id="17" stroke="none" target-height="171.2" target-width="119.399994" target-x="371.5" target-y="199.3"></path></g><path d="M 575.80 186.30 L 575.50 193.20 L 574.90 199.90 L 573.80 206.40 L 572.40 212.80 L 570.50 219.00 L 567.60 226.60 L 564.20 233.80 L 560.30 240.70 L 555.80 247.30 L 550.90 253.50 L 545.50 259.30 L 539.70 264.70 L 533.50 269.70 L 526.90 274.10 L 520.00 278.00 L 512.80 281.40 L 505.20 284.30 L 499.00 286.20 L 492.60 287.60 L 486.10 288.70 L 479.40 289.30 L 472.50 289.60 L 465.60 289.30 L 458.90 288.70 L 452.40 287.60 L 446.10 286.20 L 439.90 284.30 L 432.30 281.40 L 425.00 278.00 L 418.10 274.10 L 411.50 269.70 L 405.30 264.70 L 399.50 259.30 L 394.20 253.50 L 389.20 247.30 L 384.70 240.70 L 380.80 233.80 L 377.40 226.60 L 374.50 219.00 L 372.70 212.80 L 371.20 206.40 L 370.20 199.90 L 369.50 193.20 L 369.30 186.30 L 369.50 179.40 L 370.20 172.80 L 371.20 166.20 L 372.70 159.90 L 374.50 153.70 L 377.40 146.10 L 380.80 138.90 L 384.70 131.90 L 389.20 125.40 L 394.20 119.10 L 399.50 113.30 L 405.30 108.00 L 411.50 103.00 L 418.10 98.60 L 425.00 94.60 L 432.30 91.20 L 439.90 88.40 L 446.10 86.50 L 452.40 85.00 L 458.90 84.00 L 465.60 83.30 L 472.50 83.10 L 479.40 83.30 L 486.10 84.00 L 492.60 85.00 L 499.00 86.50 L 505.20 88.40 L 512.80 91.20 L 520.00 94.60 L 526.90 98.60 L 533.50 103.00 L 539.70 108.00 L 545.50 113.30 L 550.90 119.10 L 555.80 125.40 L 560.30 131.90 L 564.20 138.90 L 567.60 146.10 L 570.50 153.70 L 572.40 159.90 L 573.80 166.20 L 574.90 172.80 L 575.50 179.40 L 575.80 186.30 Z" fill="#f0f0ff" fill-rule="nonzero" group-id="1" id="Oval" node-id="18" stroke="none" target-height="206.5" target-width="206.5" target-x="369.3" target-y="83.1"></path><path d="M 464.30 182.70 L 464.00 185.80 L 462.50 191.40 L 461.20 194.00 L 459.00 197.10 L 456.40 199.70 L 453.20 201.90 L 450.70 203.20 L 445.10 204.80 L 442.00 205.00 L 439.00 204.80 L 433.40 203.20 L 430.80 201.90 L 427.70 199.70 L 425.00 197.10 L 422.80 194.00 L 421.50 191.40 L 420.00 185.80 L 419.80 182.70 L 420.00 179.70 L 421.50 174.10 L 422.80 171.50 L 425.00 168.40 L 427.70 165.80 L 430.80 163.60 L 433.40 162.30 L 439.00 160.70 L 442.00 160.50 L 445.10 160.70 L 450.70 162.30 L 453.20 163.60 L 456.40 165.80 L 459.00 168.40 L 461.20 171.50 L 462.50 174.10 L 464.00 179.70 L 464.30 182.70 Z" fill="#6e6e96" fill-rule="nonzero" group-id="1" id="Oval" node-id="19" stroke="none" target-height="44.5" target-width="44.5" target-x="419.8" target-y="160.5"></path><path d="M 418.20 409.70 L 415.10 400.10 L 411.80 391.10 L 408.20 382.80 L 404.50 375.10 L 400.50 367.90 L 396.30 361.30 L 391.50 354.70 L 386.60 348.60 L 381.40 343.00 L 376.10 337.90 L 370.70 333.30 L 365.00 329.10 L 357.70 324.50 L 350.30 320.60 L 342.60 317.20 L 334.60 314.40 L 326.40 312.20 L 318.10 310.50 L 309.60 309.40 L 300.90 308.90 L 291.90 308.90 L 282.70 309.40 L 273.60 310.50 L 264.50 312.00 L 255.10 314.10 L 245.60 316.70 L 235.90 319.80 L 226.50 323.40 L 217.00 327.40 L 207.50 331.90 L 197.80 336.90 L 188.10 342.50 L 169.40 354.50 L 150.80 368.50 L 141.50 376.30 L 130.40 386.20 L 119.50 396.90 L 108.80 408.20 L 98.30 420.20 L 90.20 430.10 L 82.40 440.30 L 74.90 450.90 L 67.50 461.90 L 60.40 473.30 L 53.70 484.90 L 47.30 496.80 L 41.20 509.00 L 35.40 521.60 L 30.00 534.60 L 25.00 547.70 L 20.50 561.00 L 16.30 574.70 L 12.60 588.70 L 9.20 603.10 L 6.40 617.40 L 4.10 632.00 L 2.30 646.90 L 1.00 662.10 L 0.20 677.60 L -0.00 693.00 L 0.30 708.60 L 1.30 724.50 L 2.80 740.80 L 5.00 757.30 L 7.30 770.80 L 10.00 784.50 L 13.20 798.30 L 16.90 812.40 L 21.10 826.60 L 25.80 841.10 L 30.90 855.10 L 36.40 869.30 L 42.60 883.70 L 49.40 898.30 L 56.70 913.10 L 64.70 928.10 L 72.90 942.40 L 81.60 957.00 L 91.10 971.70 L 101.30 986.60 L 112.20 1001.80 L 123.80 1017.10 L 131.50 1026.60 L 139.70 1035.80 L 148.30 1044.70 L 157.30 1053.20 L 166.80 1061.50 L 176.50 1069.30 L 186.50 1076.90 L 197.00 1084.30 L 207.80 1091.30 L 218.90 1098.10 L 233.10 1106.10 L 247.80 1113.70 L 262.90 1120.90 L 278.50 1127.70 L 294.20 1134.10 L 310.20 1140.10 L 326.60 1145.70 L 343.40 1151.00 L 365.80 1157.50 L 388.70 1163.40 L 411.80 1168.70 L 435.10 1173.50 L 458.50 1177.80 L 481.90 1181.60 L 528.70 1187.90 L 551.70 1190.40 L 597.30 1194.30 L 652.10 1197.40 L 682.90 1198.40 L 740.60 1199.10 L 779.30 1198.90 L 816.80 1198.30 L 853.30 1197.20 L 889.80 1195.70 L 924.70 1193.80 L 958.20 1191.50 L 991.80 1188.80 L 1023.40 1185.80 L 1053.20 1182.60 L 1083.10 1178.80 L 1110.60 1174.90 L 1136.00 1170.70 L 1155.30 1167.20 L 1189.30 1160.00 L 1219.70 1152.20 L 1233.30 1148.10 L 1245.30 1144.00 L 1255.90 1139.90 L 1264.70 1136.00 L 1272.30 1132.30 L 1278.70 1128.60 L 1284.00 1125.10 L 1288.40 1121.70 L 1292.20 1118.20 L 1295.10 1114.80 L 1297.20 1111.60 L 1298.60 1108.40 L 1299.50 1105.30 L 1299.80 1102.10 L 1299.50 1099.00 L 1298.60 1096.00 L 1297.20 1092.90 L 1295.00 1089.90 L 1292.20 1086.70 L 1288.40 1083.60 L 1284.00 1080.50 L 1278.60 1077.40 L 1272.20 1074.20 L 1264.60 1071.00 L 1255.70 1067.70 L 1245.20 1064.30 L 1233.20 1060.90 L 1219.50 1057.50 L 1204.10 1054.10 L 1183.80 1050.10 L 1161.10 1046.20 L 1110.20 1038.90 L 1052.80 1032.00 L 1007.40 1027.30 L 907.10 1018.30 L 740.60 1005.20 L 722.80 1003.50 L 706.00 1001.40 L 689.90 998.80 L 674.80 995.80 L 660.30 992.40 L 645.60 988.30 L 631.70 983.90 L 618.50 979.10 L 605.90 974.00 L 594.00 968.60 L 582.10 962.50 L 570.80 956.10 L 560.10 949.50 L 549.90 942.60 L 540.30 935.40 L 530.90 927.60 L 521.90 919.70 L 513.50 911.50 L 505.50 903.10 L 497.90 894.40 L 490.70 885.40 L 483.80 876.20 L 477.40 866.80 L 471.30 857.20 L 465.60 847.40 L 459.00 834.90 L 452.90 822.10 L 447.30 809.20 L 442.20 796.00 L 437.50 782.60 L 433.30 769.10 L 429.60 755.50 L 426.20 741.80 L 422.40 723.40 L 419.20 705.00 L 416.60 686.60 L 414.60 668.10 L 413.00 649.90 L 412.00 631.90 L 411.30 613.90 L 411.00 579.50 L 411.60 554.40 L 412.60 531.10 L 413.90 508.40 L 418.10 452.50 L 419.40 425.80 L 419.30 418.50 L 418.90 413.20 L 418.20 409.70 Z" fill="#f7e2cd" fill-rule="nonzero" group-id="1" id="Shape" node-id="20" stroke="none" target-height="890.19995" target-width="1299.8" target-x="-0" target-y="308.9"></path><path d="M 123.80 1017.10 L 131.50 1026.60 L 139.70 1035.80 L 148.30 1044.60 L 157.30 1053.20 L 166.80 1061.50 L 176.50 1069.30 L 186.50 1076.90 L 197.00 1084.30 L 207.80 1091.30 L 218.90 1098.10 L 233.10 1106.10 L 247.80 1113.70 L 262.90 1120.90 L 278.40 1127.70 L 294.20 1134.10 L 310.20 1140.10 L 326.60 1145.70 L 343.40 1151.00 L 365.80 1157.50 L 388.70 1163.40 L 411.80 1168.70 L 435.10 1173.50 L 458.50 1177.80 L 481.90 1181.60 L 528.70 1187.90 L 574.80 1192.50 L 619.40 1195.70 L 652.10 1197.40 L 682.90 1198.40 L 740.60 1199.10 L 779.30 1198.90 L 816.80 1198.30 L 853.30 1197.20 L 889.80 1195.70 L 924.70 1193.80 L 958.20 1191.50 L 991.80 1188.80 L 1023.40 1185.80 L 1053.20 1182.60 L 1083.10 1178.80 L 1110.60 1174.90 L 1136.00 1170.70 L 1155.30 1167.20 L 1173.00 1163.70 L 1204.30 1156.40 L 1219.70 1152.20 L 1233.30 1148.10 L 1245.30 1144.00 L 1255.90 1139.90 L 1264.70 1136.00 L 1272.30 1132.30 L 1278.70 1128.60 L 1284.00 1125.10 L 1288.40 1121.70 L 1292.20 1118.20 L 1295.10 1114.80 L 1297.20 1111.60 L 1298.60 1108.40 L 1299.50 1105.30 L 1299.80 1102.10 L 1299.50 1099.00 L 1298.60 1096.00 L 1297.20 1092.90 L 1295.00 1089.90 L 1292.20 1086.70 L 1288.40 1083.60 L 1284.00 1080.50 L 1278.60 1077.40 L 1272.20 1074.20 L 1264.60 1071.00 L 1255.70 1067.70 L 1245.20 1064.30 L 1233.20 1060.90 L 1219.50 1057.50 L 1204.10 1054.10 L 1183.80 1050.10 L 1161.10 1046.20 L 1135.70 1042.30 L 1082.70 1035.40 L 1007.40 1027.30 L 907.10 1018.30 L 740.60 1005.20 L 722.80 1003.50 L 706.00 1001.40 L 689.90 998.80 L 674.80 995.80 L 660.30 992.40 L 645.60 988.30 L 631.70 983.90 L 618.50 979.10 L 605.90 974.00 L 594.00 968.60 L 582.10 962.50 L 570.80 956.10 L 560.10 949.50 L 549.90 942.60 L 540.30 935.40 L 530.90 927.60 L 521.90 919.70 L 513.50 911.50 L 505.50 903.10 L 497.90 894.40 L 490.70 885.40 L 483.80 876.20 L 477.40 866.80 L 471.30 857.20 L 465.60 847.40 L 459.00 834.80 L 452.90 822.10 L 447.30 809.10 L 442.20 796.00 L 437.50 782.60 L 433.30 769.10 L 429.60 755.50 L 426.20 741.80 L 422.40 723.40 L 419.20 705.00 L 416.60 686.60 L 414.60 668.10 L 413.00 649.90 L 412.00 631.90 L 411.00 596.50 L 411.60 554.40 L 413.90 508.40 L 418.10 452.50 L 419.40 425.80 L 419.30 418.50 L 418.90 413.20 L 418.20 409.70 L 415.10 400.10 L 411.80 391.10 L 408.20 382.80 L 404.50 375.10 L 400.50 367.90 L 396.30 361.30 L 391.50 354.70 L 386.60 348.60 L 381.40 343.00 L 376.10 337.90 L 370.70 333.30 L 365.00 329.10 L 357.70 324.50 L 350.30 320.60 L 342.60 317.20 L 334.60 314.40 L 326.40 312.20 L 318.10 310.50 L 309.60 309.40 L 300.90 308.90 L 291.90 308.90 L 282.70 309.40 L 273.60 310.50 L 264.50 312.00 L 255.10 314.10 L 245.60 316.70 L 235.90 319.80 L 226.50 323.40 L 217.00 327.40 L 207.50 331.90 L 197.80 336.90 L 188.10 342.50 L 169.40 354.50 L 150.80 368.50 L 141.60 376.20 L 130.40 386.20 L 119.50 396.90 L 108.80 408.20 L 98.30 420.20 L 90.20 430.10 L 82.40 440.30 L 74.90 450.90 L 67.50 461.90 L 60.40 473.30 L 53.70 484.90 L 47.30 496.80 L 41.20 509.00 L 35.40 521.60 L 30.00 534.60 L 25.00 547.70 L 20.50 561.00 L 16.30 574.70 L 12.60 588.70 L 9.20 603.00 L 6.40 617.40 L 4.10 632.00 L 2.30 646.90 L 1.00 662.10 L 0.20 677.60 L -0.00 693.00 L 0.30 708.60 L 1.30 724.50 L 2.80 740.80 L 5.00 757.30 L 7.30 770.80 L 10.00 784.50 L 13.20 798.30 L 16.90 812.40 L 21.10 826.60 L 25.80 841.10 L 30.90 855.10 L 36.50 869.30 L 42.60 883.70 L 49.40 898.30 L 56.70 913.10 L 64.70 928.10 L 72.90 942.40 L 81.70 957.00 L 91.10 971.70 L 101.30 986.60 L 112.20 1001.80 L 123.80 1017.10 Z M 418.20 409.70 L 418.70 418.70 L 417.80 439.30 L 411.80 518.40 L 409.00 569.60 L 408.00 597.50 L 407.60 635.50 L 408.50 675.00 L 409.50 694.80 L 410.90 714.80 L 412.80 734.80 L 415.20 754.60 L 418.10 774.10 L 420.70 788.80 L 423.70 803.10 L 427.00 817.20 L 430.70 831.00 L 434.80 844.70 L 439.30 858.00 L 444.20 870.90 L 449.60 883.30 L 454.30 893.20 L 459.30 902.70 L 464.50 911.80 L 470.10 920.60 L 476.00 929.00 L 482.30 937.30 L 488.90 945.00 L 495.90 952.40 L 503.20 959.40 L 510.90 966.00 L 519.00 972.10 L 527.40 977.80 L 536.30 983.00 L 545.70 987.80 L 555.50 992.10 L 563.30 995.00 L 581.80 1000.80 L 607.00 1006.90 L 622.90 1010.20 L 657.90 1016.10 L 696.50 1021.40 L 726.70 1024.90 L 791.60 1031.30 L 859.60 1036.70 L 1028.80 1048.20 L 1090.70 1052.70 L 1146.10 1057.50 L 1171.30 1060.30 L 1206.90 1065.20 L 1218.90 1067.30 L 1236.80 1071.40 L 1243.10 1073.30 L 1252.20 1077.00 L 1255.50 1078.90 L 1257.80 1080.80 L 1259.30 1082.60 L 1260.10 1084.30 L 1260.40 1086.00 L 1260.10 1087.70 L 1259.30 1089.40 L 1257.90 1091.10 L 1255.70 1092.90 L 1252.40 1094.80 L 1243.60 1098.20 L 1237.50 1099.90 L 1220.00 1103.40 L 1194.80 1106.80 L 1173.70 1108.70 L 1149.10 1110.40 L 1094.90 1112.70 L 1065.50 1113.50 L 1002.20 1114.20 L 901.20 1113.90 L 833.00 1113.00 L 595.80 1108.50 L 537.30 1108.00 L 517.00 1107.20 L 489.00 1105.00 L 474.10 1103.30 L 459.20 1101.20 L 444.10 1098.60 L 428.60 1095.40 L 405.50 1089.50 L 394.00 1086.10 L 382.50 1082.20 L 371.10 1077.90 L 359.80 1073.30 L 348.70 1068.10 L 337.70 1062.50 L 326.90 1056.50 L 316.40 1049.90 L 306.20 1042.80 L 296.20 1035.10 L 288.50 1028.70 L 281.00 1021.80 L 273.80 1014.60 L 266.70 1006.90 L 259.90 998.80 L 253.50 990.60 L 247.50 981.80 L 241.60 972.50 L 236.10 962.80 L 230.80 952.40 L 222.70 934.60 L 215.20 917.00 L 208.30 899.50 L 202.20 882.30 L 196.70 865.20 L 191.60 847.60 L 187.10 830.40 L 183.20 813.30 L 179.80 796.40 L 177.00 779.80 L 174.70 762.80 L 172.80 746.20 L 171.40 729.80 L 170.50 713.60 L 170.10 697.70 L 170.10 681.60 L 170.50 665.80 L 171.30 650.40 L 172.50 635.20 L 174.10 620.30 L 176.70 601.60 L 179.70 583.50 L 183.20 566.00 L 187.20 549.00 L 191.80 532.00 L 196.70 515.70 L 202.00 500.10 L 207.70 485.20 L 213.80 470.20 L 220.20 456.10 L 226.80 442.80 L 233.60 430.20 L 240.90 417.70 L 248.30 406.00 L 255.80 395.30 L 263.20 385.40 L 271.30 375.70 L 279.30 367.00 L 287.10 359.20 L 294.80 352.30 L 301.50 347.00 L 308.00 342.30 L 314.30 338.40 L 320.50 335.00 L 326.50 332.20 L 332.90 329.80 L 339.10 328.00 L 345.10 326.90 L 350.80 326.40 L 356.40 326.50 L 361.10 327.00 L 365.70 328.00 L 370.10 329.50 L 374.50 331.30 L 378.70 333.70 L 382.90 336.60 L 386.70 339.70 L 390.30 343.30 L 393.90 347.50 L 397.40 352.30 L 400.80 357.70 L 404.10 363.90 L 407.30 370.90 L 410.40 379.00 L 413.20 388.00 L 415.80 398.20 L 418.20 409.70 Z" fill="#edd9c4" fill-rule="nonzero" group-id="1" id="Shape" node-id="21" stroke="none" target-height="890.19995" target-width="1299.8" target-x="-0" target-y="308.9"></path><path d="M 123.80 1017.10 L 131.50 1026.60 L 139.70 1035.80 L 148.30 1044.60 L 157.30 1053.20 L 166.80 1061.50 L 176.50 1069.30 L 186.50 1076.90 L 197.00 1084.30 L 207.80 1091.30 L 218.90 1098.10 L 233.10 1106.10 L 247.80 1113.70 L 262.90 1120.90 L 278.40 1127.70 L 294.20 1134.10 L 310.20 1140.10 L 326.60 1145.70 L 343.40 1151.00 L 365.80 1157.50 L 388.70 1163.40 L 411.80 1168.70 L 435.10 1173.50 L 458.50 1177.80 L 481.90 1181.60 L 505.40 1185.00 L 551.70 1190.40 L 597.30 1194.30 L 652.10 1197.40 L 682.90 1198.40 L 740.60 1199.10 L 779.80 1198.90 L 817.90 1198.20 L 854.80 1197.10 L 891.70 1195.60 L 927.10 1193.60 L 961.00 1191.30 L 994.90 1188.60 L 1026.90 1185.50 L 1056.90 1182.10 L 1087.00 1178.30 L 1114.70 1174.20 L 1140.20 1170.00 L 1177.30 1162.70 L 1208.40 1155.30 L 1223.70 1151.00 L 1237.20 1146.80 L 1249.00 1142.60 L 1259.30 1138.40 L 1238.70 1142.60 L 1216.10 1146.80 L 1191.50 1150.80 L 1166.80 1154.30 L 1140.40 1157.70 L 1112.10 1160.90 L 1054.20 1166.20 L 1023.00 1168.50 L 959.50 1172.00 L 892.30 1174.10 L 857.80 1174.70 L 822.40 1174.90 L 764.30 1174.60 L 732.90 1174.10 L 676.90 1172.40 L 629.90 1169.70 L 606.20 1168.00 L 557.80 1163.30 L 533.60 1160.30 L 509.40 1156.80 L 485.30 1152.90 L 467.20 1149.50 L 431.80 1141.90 L 414.30 1137.60 L 397.00 1132.90 L 380.00 1127.80 L 363.40 1122.40 L 347.10 1116.60 L 331.00 1110.30 L 315.40 1103.50 L 300.30 1096.40 L 285.70 1088.90 L 274.20 1082.40 L 263.10 1075.60 L 252.50 1068.50 L 242.20 1061.20 L 232.30 1053.50 L 222.70 1045.40 L 213.50 1037.00 L 204.80 1028.20 L 196.60 1019.10 L 188.80 1009.60 L 177.00 993.80 L 165.90 978.10 L 155.60 962.30 L 146.00 946.60 L 137.10 931.00 L 128.60 914.80 L 120.80 898.70 L 113.70 882.70 L 107.20 866.80 L 101.30 850.90 L 95.90 834.60 L 91.10 818.50 L 86.80 802.50 L 83.10 786.60 L 80.00 770.80 L 77.30 754.80 L 75.10 738.90 L 73.40 723.30 L 72.20 707.70 L 71.50 692.40 L 71.30 676.90 L 71.50 661.60 L 72.00 646.60 L 73.10 631.70 L 74.50 617.10 L 76.90 598.80 L 79.80 580.90 L 83.30 563.50 L 87.30 546.60 L 92.00 529.60 L 97.00 513.30 L 102.60 497.50 L 108.50 482.30 L 115.00 467.10 L 121.90 452.70 L 129.00 438.90 L 136.50 425.80 L 144.50 412.90 L 152.80 400.70 L 161.20 389.30 L 169.80 378.70 L 177.10 370.40 L 184.50 362.60 L 191.90 355.40 L 199.40 348.70 L 206.90 342.50 L 214.80 336.60 L 222.70 331.30 L 230.60 326.60 L 238.40 322.40 L 246.20 318.80 L 254.40 315.70 L 262.50 313.10 L 270.50 311.20 L 278.40 309.90 L 286.30 309.20 L 277.30 310.00 L 268.10 311.40 L 258.70 313.20 L 249.10 315.70 L 239.40 318.70 L 229.90 322.00 L 220.40 325.90 L 210.80 330.30 L 201.10 335.20 L 191.30 340.60 L 181.90 346.30 L 172.50 352.50 L 163.10 359.10 L 153.70 366.30 L 144.30 373.90 L 135.30 381.80 L 117.60 398.80 L 100.50 417.60 L 92.30 427.40 L 84.40 437.60 L 76.70 448.20 L 69.20 459.20 L 62.00 470.70 L 55.20 482.20 L 48.70 494.10 L 42.50 506.40 L 36.60 519.00 L 31.00 532.00 L 26.00 545.10 L 21.30 558.50 L 17.00 572.20 L 13.20 586.30 L 9.70 600.70 L 6.80 615.00 L 4.40 629.70 L 2.50 644.70 L 1.10 659.90 L 0.30 675.50 L -0.00 691.00 L 0.30 706.70 L 1.10 722.70 L 2.70 739.00 L 4.80 755.70 L 7.00 769.20 L 9.70 783.00 L 12.80 796.90 L 16.50 811.00 L 20.70 825.40 L 25.40 840.00 L 30.50 854.10 L 36.10 868.30 L 42.20 882.80 L 49.00 897.50 L 56.40 912.40 L 64.40 927.50 L 72.60 941.90 L 81.40 956.50 L 90.90 971.40 L 101.10 986.40 L 112.10 1001.60 L 123.80 1017.10 Z" fill="#deccb8" fill-rule="nonzero" group-id="1" id="Shape" node-id="22" stroke="none" target-height="889.89996" target-width="1259.3" target-x="-0" target-y="309.2"></path><path d="M 1209.30 774.50 L 1208.90 788.90 L 1208.10 803.00 L 1206.70 816.90 L 1204.70 830.60 L 1202.20 844.20 L 1199.20 857.70 L 1195.60 870.90 L 1191.60 883.90 L 1187.10 896.60 L 1182.10 909.10 L 1176.60 921.40 L 1170.60 933.40 L 1164.30 945.20 L 1157.50 956.60 L 1150.20 967.80 L 1142.50 978.70 L 1134.50 989.30 L 1126.10 999.50 L 1117.20 1009.40 L 1108.00 1019.00 L 1098.50 1028.20 L 1088.60 1037.00 L 1078.30 1045.50 L 1067.80 1053.50 L 1056.90 1061.20 L 1045.70 1068.50 L 1034.30 1075.30 L 1022.50 1081.70 L 1010.50 1087.60 L 998.20 1093.10 L 985.70 1098.10 L 973.00 1102.60 L 960.00 1106.70 L 946.80 1110.20 L 933.30 1113.30 L 919.80 1115.80 L 906.10 1117.70 L 892.20 1119.10 L 878.00 1120.00 L 863.70 1120.30 L 849.30 1120.00 L 835.10 1119.10 L 821.20 1117.70 L 807.50 1115.80 L 794.00 1113.30 L 780.50 1110.20 L 767.30 1106.70 L 754.30 1102.60 L 741.60 1098.10 L 729.10 1093.10 L 716.80 1087.60 L 704.80 1081.70 L 693.00 1075.30 L 681.60 1068.50 L 670.40 1061.20 L 659.50 1053.50 L 649.00 1045.50 L 638.70 1037.00 L 628.80 1028.20 L 619.30 1019.00 L 610.10 1009.40 L 601.20 999.50 L 592.80 989.30 L 584.80 978.70 L 577.10 967.80 L 569.80 956.60 L 563.00 945.20 L 556.70 933.40 L 550.70 921.40 L 545.20 909.10 L 540.20 896.60 L 535.70 883.90 L 531.70 870.90 L 528.10 857.70 L 525.10 844.20 L 522.60 830.60 L 520.60 816.90 L 519.20 803.00 L 518.40 788.90 L 518.10 774.50 L 518.40 760.10 L 519.20 745.90 L 520.60 732.00 L 522.60 718.30 L 525.10 704.80 L 528.10 691.30 L 531.70 678.10 L 535.70 665.10 L 540.20 652.40 L 545.20 639.90 L 550.70 627.50 L 556.70 615.50 L 563.00 603.80 L 569.80 592.30 L 577.10 581.10 L 584.80 570.20 L 592.80 559.70 L 601.20 549.40 L 610.10 539.50 L 619.30 529.90 L 628.80 520.70 L 638.70 511.90 L 649.00 503.50 L 659.50 495.40 L 670.40 487.70 L 681.60 480.50 L 693.00 473.70 L 704.80 467.30 L 716.80 461.30 L 729.10 455.80 L 741.60 450.80 L 754.30 446.30 L 767.30 442.30 L 780.50 438.70 L 794.00 435.70 L 807.50 433.20 L 821.20 431.20 L 835.10 429.80 L 849.30 429.00 L 863.70 428.70 L 878.00 429.00 L 892.20 429.80 L 906.10 431.20 L 919.80 433.20 L 933.30 435.70 L 946.80 438.70 L 960.00 442.30 L 973.00 446.30 L 985.70 450.80 L 998.20 455.80 L 1010.50 461.30 L 1022.50 467.30 L 1034.30 473.70 L 1045.70 480.50 L 1056.90 487.70 L 1067.80 495.40 L 1078.30 503.50 L 1088.60 511.90 L 1098.50 520.70 L 1108.00 529.90 L 1117.20 539.50 L 1126.10 549.40 L 1134.50 559.70 L 1142.50 570.20 L 1150.20 581.10 L 1157.50 592.30 L 1164.30 603.80 L 1170.60 615.50 L 1176.60 627.50 L 1182.10 639.90 L 1187.10 652.40 L 1191.60 665.10 L 1195.60 678.10 L 1199.20 691.30 L 1202.20 704.80 L 1204.70 718.30 L 1206.70 732.00 L 1208.10 745.90 L 1208.90 760.10 L 1209.30 774.50 Z" fill="#8b5c29" fill-rule="nonzero" group-id="1" id="Oval" node-id="23" stroke="none" target-height="691.60004" target-width="691.2001" target-x="518.1" target-y="428.7"></path><path d="M 905.00 729.00 L 913.50 737.30 L 918.60 741.50 L 923.50 745.10 L 932.70 750.40 L 935.50 751.60 L 939.30 752.50 L 938.50 752.60 L 941.40 750.90 L 947.10 746.00 L 945.60 748.90 L 945.70 746.80 L 945.00 742.80 L 943.80 738.20 L 939.50 728.00 L 933.80 718.20 L 930.40 713.30 L 921.10 702.40 L 914.90 696.30 L 908.40 690.90 L 901.90 686.00 L 895.20 681.70 L 888.10 677.80 L 881.00 674.60 L 873.90 672.00 L 866.80 670.00 L 861.00 668.90 L 855.20 668.20 L 849.50 667.90 L 843.90 668.00 L 838.30 668.50 L 827.50 670.30 L 817.50 672.60 L 808.30 675.30 L 799.80 678.30 L 791.40 682.00 L 783.70 685.90 L 776.60 690.10 L 770.20 694.60 L 763.90 699.50 L 758.30 704.60 L 753.20 709.80 L 748.60 715.20 L 744.30 720.80 L 740.60 726.50 L 734.50 737.80 L 729.90 749.40 L 727.00 760.40 L 725.90 767.70 L 725.40 774.50 L 725.50 780.70 L 726.40 789.10 L 727.80 797.70 L 729.90 806.40 L 732.60 815.40 L 735.70 824.10 L 739.40 832.80 L 743.70 841.50 L 748.60 850.30 L 753.80 858.80 L 759.50 867.10 L 765.70 875.30 L 772.50 883.40 L 779.50 891.20 L 787.00 898.60 L 795.00 905.80 L 803.40 912.70 L 812.00 919.20 L 821.10 925.30 L 830.50 930.90 L 840.20 936.20 L 850.30 940.90 L 860.60 945.10 L 871.20 948.70 L 882.10 951.80 L 891.00 953.70 L 900.00 955.30 L 909.20 956.40 L 918.50 957.10 L 928.10 957.40 L 941.30 957.10 L 953.80 956.30 L 965.80 955.10 L 977.10 953.40 L 988.00 951.30 L 999.00 948.60 L 1009.40 945.60 L 1019.30 942.10 L 1028.80 938.40 L 1037.80 934.30 L 1046.70 929.60 L 1055.10 924.70 L 1063.20 919.50 L 1070.80 914.00 L 1077.90 908.30 L 1084.90 902.10 L 1091.50 895.70 L 1097.70 889.10 L 1103.50 882.30 L 1109.00 875.30 L 1115.30 866.10 L 1121.20 856.80 L 1126.50 847.10 L 1131.20 837.30 L 1135.40 827.20 L 1139.20 817.00 L 1142.40 806.60 L 1145.10 796.20 L 1147.30 785.60 L 1149.10 775.00 L 1150.30 764.50 L 1151.10 753.90 L 1151.50 742.10 L 1151.30 730.10 L 1150.60 718.10 L 1149.40 705.90 L 1147.60 693.90 L 1145.30 681.80 L 1142.50 669.80 L 1139.10 657.80 L 1135.20 646.00 L 1130.70 634.30 L 1125.60 622.80 L 1120.00 611.30 L 1113.80 600.20 L 1107.10 589.30 L 1099.70 578.60 L 1091.80 568.20 L 1085.10 560.10 L 1078.00 552.30 L 1070.40 544.60 L 1062.50 537.20 L 1054.10 529.90 L 1045.60 523.10 L 1036.60 516.60 L 1027.10 510.20 L 1017.20 504.20 L 1006.80 498.40 L 996.30 493.10 L 985.40 488.20 L 973.90 483.50 L 961.90 479.20 L 949.40 475.20 L 937.00 471.80 L 924.10 468.80 L 910.60 466.10 L 896.50 463.90 L 881.80 462.10 L 867.80 460.80 L 854.00 460.10 L 840.50 459.80 L 827.20 460.00 L 814.20 460.60 L 801.30 461.70 L 788.30 463.30 L 775.60 465.30 L 763.20 467.80 L 751.10 470.70 L 739.20 474.10 L 727.50 478.00 L 716.00 482.40 L 704.70 487.20 L 693.80 492.50 L 683.20 498.30 L 672.90 504.50 L 662.80 511.20 L 653.10 518.30 L 643.80 526.00 L 634.70 534.10 L 626.10 542.70 L 617.70 551.90 L 609.60 561.50 L 602.20 571.40 L 595.10 581.80 L 588.30 592.80 L 582.00 604.30 L 576.00 616.50 L 570.40 629.30 L 566.30 639.60 L 562.60 650.30 L 559.10 661.50 L 556.00 673.10 L 553.30 684.80 L 550.90 696.70 L 548.80 708.90 L 547.20 721.50 L 545.90 734.00 L 545.00 746.70 L 544.60 759.60 L 544.60 772.60 L 545.00 785.60 L 545.90 798.70 L 547.20 811.70 L 549.00 824.80 L 551.30 837.90 L 554.10 850.80 L 557.40 863.70 L 561.20 876.50 L 565.50 889.10 L 570.40 901.50 L 575.80 913.70 L 581.80 925.80 L 587.00 935.20 L 592.50 944.50 L 598.50 953.50 L 604.90 962.40 L 611.60 971.10 L 618.70 979.50 L 626.20 987.70 L 634.10 995.60 L 642.50 1003.30 L 651.40 1010.80 L 658.10 1015.80 L 666.60 1021.60 L 717.40 1053.30 L 727.90 1060.20 L 738.20 1067.20 L 747.60 1074.20 L 759.00 1083.70 L 763.80 1088.30 L 768.30 1093.20 L 771.90 1097.90 L 774.70 1102.40 L 776.50 1106.00 L 777.70 1109.40 L 778.40 1112.80 L 778.60 1116.00 L 778.20 1119.30 L 777.30 1122.50 L 775.80 1125.70 L 773.50 1129.10 L 771.30 1131.40 L 765.90 1135.30 L 762.60 1136.90 L 758.70 1138.30 L 754.00 1139.60 L 748.70 1140.60 L 742.80 1141.20 L 736.20 1141.50 L 727.60 1141.40 L 718.20 1140.80 L 708.10 1139.70 L 687.40 1136.20 L 676.40 1133.80 L 660.00 1129.70 L 643.50 1124.90 L 627.10 1119.60 L 611.30 1113.90 L 596.00 1107.90 L 582.10 1101.90 L 568.90 1095.70 L 557.90 1089.90 L 550.90 1085.80 L 540.90 1078.90 L 525.30 1065.60 L 510.60 1052.40 L 496.80 1039.40 L 483.90 1026.60 L 471.80 1013.90 L 460.50 1001.30 L 449.30 987.90 L 438.80 974.50 L 429.20 961.30 L 420.30 948.10 L 412.20 935.00 L 404.80 922.00 L 397.80 908.30 L 391.40 894.70 L 385.70 881.00 L 380.70 867.30 L 376.40 853.50 L 372.70 839.70 L 369.60 825.70 L 367.10 811.50 L 365.20 797.20 L 363.90 782.70 L 363.20 768.00 L 363.10 753.20 L 363.60 738.50 L 364.70 723.60 L 366.40 708.50 L 368.70 693.00 L 371.60 677.20 L 375.10 661.10 L 379.00 645.60 L 383.50 629.70 L 388.50 613.40 L 394.20 596.70 L 400.50 579.70 L 407.50 562.20 L 414.70 545.40 L 422.40 529.20 L 430.40 513.60 L 438.90 498.40 L 447.80 483.70 L 457.10 469.50 L 467.00 455.50 L 477.20 442.00 L 487.90 429.00 L 498.80 416.50 L 510.20 404.50 L 521.90 393.00 L 534.10 381.90 L 546.60 371.30 L 559.40 361.20 L 572.60 351.60 L 586.10 342.50 L 599.90 334.00 L 614.10 325.90 L 628.50 318.40 L 643.20 311.40 L 658.20 304.90 L 673.50 298.90 L 689.20 293.50 L 704.90 288.70 L 720.90 284.40 L 737.10 280.70 L 753.70 277.50 L 770.50 274.90 L 787.60 272.80 L 804.60 271.40 L 821.80 270.60 L 839.20 270.30 L 856.90 270.70 L 874.90 271.60 L 893.20 273.20 L 909.70 275.20 L 925.80 277.50 L 941.40 280.20 L 956.70 283.30 L 971.50 286.80 L 985.90 290.60 L 1003.30 295.80 L 1020.10 301.40 L 1036.40 307.50 L 1052.10 314.10 L 1067.30 321.00 L 1082.40 328.70 L 1096.90 336.60 L 1110.90 345.00 L 1124.40 353.70 L 1137.40 362.80 L 1150.20 372.50 L 1162.50 382.40 L 1174.20 392.70 L 1185.50 403.20 L 1196.30 414.10 L 1206.70 425.40 L 1216.70 437.00 L 1226.20 448.80 L 1235.20 460.80 L 1243.80 473.10 L 1252.00 485.70 L 1259.60 498.50 L 1266.90 511.40 L 1273.60 524.60 L 1280.00 537.90 L 1285.80 551.50 L 1291.30 565.10 L 1296.20 578.90 L 1300.70 592.80 L 1304.80 606.80 L 1308.40 620.90 L 1311.50 635.10 L 1314.20 649.30 L 1316.40 663.60 L 1318.20 677.90 L 1319.50 692.30 L 1320.40 706.60 L 1320.80 720.90 L 1320.70 735.20 L 1320.20 749.50 L 1319.10 765.20 L 1317.60 780.50 L 1315.50 795.60 L 1313.00 810.30 L 1309.90 824.60 L 1306.50 838.70 L 1302.50 852.80 L 1298.00 866.60 L 1293.10 880.10 L 1287.80 893.20 L 1282.10 905.90 L 1276.00 918.40 L 1269.30 930.70 L 1262.30 942.60 L 1254.90 954.20 L 1247.10 965.50 L 1238.90 976.40 L 1230.30 987.00 L 1221.30 997.20 L 1212.00 1007.10 L 1202.30 1016.60 L 1192.30 1025.70 L 1181.90 1034.50 L 1171.10 1042.90 L 1160.00 1050.90 L 1148.70 1058.50 L 1137.00 1065.60 L 1125.00 1072.40 L 1112.60 1078.80 L 1099.90 1084.80 L 1087.10 1090.20 L 1074.00 1095.30 L 1060.60 1099.90 L 1046.90 1104.00 L 1032.80 1107.70 L 1018.40 1111.00 L 1004.10 1113.70 L 989.50 1116.00 L 974.60 1117.70 L 959.40 1119.00 L 943.90 1119.80 L 928.10 1120.10 L 914.30 1119.80 L 900.90 1119.20 L 887.80 1118.10 L 875.10 1116.60 L 862.70 1114.80 L 850.50 1112.50 L 835.90 1109.20 L 821.60 1105.40 L 807.90 1101.20 L 794.60 1096.40 L 781.70 1091.20 L 768.80 1085.40 L 756.40 1079.20 L 744.50 1072.70 L 732.90 1065.70 L 721.80 1058.30 L 710.90 1050.40 L 700.40 1042.30 L 690.30 1033.80 L 680.60 1025.00 L 671.30 1015.90 L 662.30 1006.30 L 653.80 996.60 L 645.60 986.60 L 637.90 976.40 L 630.60 966.00 L 623.60 955.20 L 617.00 944.30 L 610.90 933.30 L 605.20 922.10 L 599.90 910.70 L 595.00 899.10 L 590.50 887.50 L 586.40 875.80 L 582.80 864.00 L 579.60 852.20 L 576.80 840.20 L 574.50 828.30 L 572.60 816.30 L 571.10 804.40 L 570.10 792.50 L 569.50 779.30 L 569.30 766.30 L 569.70 753.60 L 570.50 741.30 L 571.90 729.10 L 573.60 717.30 L 575.90 705.30 L 578.70 693.60 L 581.80 682.30 L 585.40 671.20 L 589.50 660.40 L 593.90 649.90 L 598.90 639.50 L 604.20 629.40 L 609.90 619.70 L 616.10 610.20 L 622.60 601.10 L 629.60 592.20 L 636.90 583.60 L 644.60 575.40 L 652.60 567.50 L 661.10 560.00 L 669.90 552.70 L 679.20 545.80 L 688.60 539.30 L 698.40 533.20 L 708.60 527.50 L 719.10 522.10 L 730.00 517.10 L 741.30 512.50 L 752.60 508.30 L 764.30 504.60 L 776.30 501.30 L 788.70 498.40 L 801.50 495.90 L 814.70 493.90 L 825.60 492.60 L 836.30 491.90 L 847.00 491.60 L 857.40 491.70 L 867.80 492.30 L 878.20 493.40 L 888.40 494.80 L 898.50 496.70 L 908.40 498.90 L 918.20 501.50 L 930.30 505.30 L 942.20 509.60 L 953.70 514.30 L 965.00 519.70 L 976.10 525.40 L 986.80 531.60 L 997.20 538.20 L 1007.20 545.20 L 1017.10 552.70 L 1026.40 560.40 L 1035.50 568.30 L 1044.10 576.60 L 1052.40 585.30 L 1060.20 594.10 L 1067.60 603.10 L 1074.50 612.20 L 1081.10 621.70 L 1087.20 631.20 L 1092.70 640.70 L 1097.70 650.40 L 1102.30 660.10 L 1106.40 669.90 L 1110.00 679.50 L 1113.00 689.10 L 1115.60 698.70 L 1117.80 708.40 L 1119.50 718.10 L 1120.70 727.60 L 1121.50 737.10 L 1121.80 746.40 L 1121.60 755.80 L 1121.00 765.10 L 1119.90 774.20 L 1118.30 783.20 L 1116.40 792.00 L 1113.90 800.80 L 1111.00 809.30 L 1107.70 817.70 L 1103.90 825.90 L 1099.60 833.90 L 1094.90 841.70 L 1089.80 849.20 L 1084.30 856.50 L 1078.20 863.70 L 1071.70 870.60 L 1063.80 878.10 L 1056.00 884.90 L 1048.30 891.00 L 1040.80 896.40 L 1032.90 901.60 L 1025.20 906.20 L 1017.60 910.20 L 1002.60 916.80 L 995.10 919.50 L 980.90 923.70 L 971.40 925.70 L 962.40 927.20 L 953.90 928.10 L 945.40 928.60 L 930.20 928.50 L 920.60 927.70 L 911.30 926.50 L 902.40 924.90 L 893.70 922.90 L 876.70 917.70 L 861.00 911.40 L 850.80 906.50 L 841.40 901.40 L 832.50 896.10 L 823.80 890.50 L 808.60 879.30 L 798.30 870.70 L 789.70 862.90 L 782.00 855.30 L 771.20 843.50 L 764.00 834.20 L 760.20 828.20 L 756.90 822.00 L 754.30 815.60 L 752.10 809.00 L 750.40 802.40 L 749.30 795.70 L 748.70 789.00 L 748.60 782.20 L 749.10 775.40 L 750.00 768.80 L 751.50 762.10 L 753.50 755.60 L 755.90 749.30 L 758.90 743.20 L 762.40 737.20 L 766.30 731.50 L 770.70 726.10 L 775.70 721.00 L 781.10 716.10 L 787.00 711.70 L 793.00 708.00 L 799.20 704.70 L 805.60 702.10 L 812.10 699.90 L 818.80 698.20 L 825.50 697.10 L 832.20 696.50 L 839.00 696.40 L 845.70 696.90 L 852.40 697.80 L 859.00 699.30 L 865.50 701.30 L 871.80 703.70 L 878.00 706.70 L 884.00 710.20 L 889.60 714.10 L 895.00 718.50 L 900.20 723.50 L 905.00 729.00 Z" fill="#d59758" fill-rule="nonzero" group-id="1" id="Shape" node-id="24" stroke="none" target-height="871.2" target-width="957.7001" target-x="363.1" target-y="270.3"></path><path d="M 675.70 1123.50 L 660.60 1119.20 L 639.20 1111.80 L 625.50 1106.40 L 606.10 1097.50 L 584.40 1086.10 L 573.00 1079.40 L 561.10 1071.80 L 549.50 1063.80 L 537.60 1054.80 L 525.30 1044.90 L 516.50 1037.20 L 507.60 1028.90 L 498.70 1020.00 L 489.70 1010.50 L 481.20 1000.80 L 472.70 990.50 L 464.40 979.50 L 456.10 967.80 L 448.40 955.90 L 440.90 943.30 L 433.50 929.90 L 426.50 915.80 L 420.50 902.50 L 415.10 889.10 L 410.20 875.70 L 405.90 862.10 L 402.20 848.30 L 399.00 834.50 L 396.40 820.50 L 394.30 806.30 L 392.70 792.00 L 391.80 777.40 L 391.30 762.70 L 391.40 748.40 L 392.10 734.00 L 393.30 719.30 L 395.00 704.40 L 397.20 689.40 L 400.10 674.10 L 403.50 658.60 L 407.50 642.80 L 412.10 626.80 L 417.30 610.50 L 423.20 593.90 L 430.40 575.70 L 437.70 558.30 L 445.30 542.00 L 453.10 526.50 L 461.60 511.00 L 470.10 496.40 L 478.80 482.60 L 487.70 469.60 L 497.00 456.70 L 506.40 444.60 L 515.90 433.10 L 525.40 422.40 L 535.40 411.90 L 545.30 402.00 L 555.20 392.70 L 565.00 384.00 L 575.20 375.60 L 595.30 360.30 L 605.10 353.50 L 618.60 344.80 L 631.70 337.00 L 644.40 330.00 L 657.40 323.50 L 669.70 317.70 L 681.50 312.60 L 695.50 307.10 L 709.70 302.10 L 724.00 297.50 L 738.40 293.50 L 753.00 290.00 L 767.60 286.90 L 782.40 284.30 L 797.20 282.20 L 812.00 280.60 L 827.00 279.50 L 841.90 278.90 L 856.90 278.80 L 871.90 279.20 L 886.80 280.00 L 901.80 281.30 L 916.80 283.20 L 931.60 285.50 L 946.40 288.30 L 961.20 291.60 L 975.90 295.30 L 990.50 299.60 L 1004.90 304.30 L 1019.20 309.50 L 1033.50 315.20 L 1047.60 321.50 L 1063.20 329.00 L 1078.20 336.90 L 1092.70 345.20 L 1106.60 353.90 L 1119.90 362.90 L 1132.80 372.30 L 1145.50 382.40 L 1157.60 392.70 L 1169.10 403.40 L 1180.10 414.50 L 1190.70 425.90 L 1200.70 437.70 L 1210.30 449.90 L 1219.30 462.40 L 1227.90 475.20 L 1235.90 488.40 L 1243.40 501.90 L 1250.40 515.80 L 1256.90 529.90 L 1262.80 544.30 L 1268.20 559.00 L 1273.10 574.00 L 1277.40 589.40 L 1281.30 605.10 L 1284.50 620.80 L 1287.20 636.70 L 1289.30 653.00 L 1290.90 669.60 L 1291.90 686.60 L 1292.40 703.90 L 1292.30 720.90 L 1291.60 738.20 L 1290.30 755.80 L 1288.50 773.70 L 1286.00 792.00 L 1283.00 810.60 L 1280.50 822.30 L 1277.50 834.00 L 1273.80 845.50 L 1269.60 856.90 L 1264.70 868.10 L 1259.40 879.10 L 1253.50 889.90 L 1247.10 900.60 L 1240.10 911.10 L 1232.50 921.40 L 1224.60 931.30 L 1216.20 941.00 L 1207.30 950.40 L 1197.80 959.70 L 1187.90 968.70 L 1177.70 977.20 L 1167.00 985.40 L 1155.90 993.40 L 1144.40 1001.00 L 1132.30 1008.30 L 1120.20 1015.20 L 1107.60 1021.60 L 1094.60 1027.70 L 1081.30 1033.40 L 1067.50 1038.70 L 1052.20 1044.00 L 1036.90 1048.60 L 1021.80 1052.60 L 1006.70 1055.90 L 991.60 1058.60 L 976.30 1060.70 L 961.10 1062.20 L 946.10 1063.10 L 931.20 1063.40 L 916.40 1063.10 L 901.50 1062.20 L 886.90 1060.60 L 872.40 1058.50 L 858.10 1055.80 L 844.00 1052.50 L 829.90 1048.60 L 816.20 1044.20 L 802.70 1039.10 L 789.40 1033.50 L 776.30 1027.20 L 765.70 1021.60 L 755.20 1015.60 L 745.00 1009.20 L 735.00 1002.40 L 725.20 995.10 L 715.50 987.50 L 705.50 978.80 L 696.10 969.90 L 687.30 960.80 L 679.10 951.50 L 671.50 942.00 L 664.30 932.00 L 657.50 921.90 L 651.30 911.70 L 645.70 901.40 L 640.50 890.90 L 635.80 880.20 L 631.50 869.30 L 627.70 858.40 L 624.40 847.50 L 621.50 836.40 L 619.00 825.20 L 617.00 814.00 L 615.30 802.80 L 614.10 791.70 L 613.40 780.50 L 612.90 766.40 L 613.10 752.50 L 613.80 738.80 L 615.20 725.10 L 617.00 711.50 L 619.50 698.20 L 622.40 685.20 L 625.80 672.40 L 629.80 659.80 L 634.20 647.60 L 639.00 635.80 L 644.30 624.40 L 647.50 618.20 L 655.70 605.30 L 660.70 598.60 L 671.50 586.00 L 677.80 579.70 L 691.50 567.50 L 698.90 561.80 L 706.80 556.10 L 715.30 550.70 L 723.90 545.60 L 732.90 540.80 L 742.40 536.20 L 752.40 532.00 L 762.40 528.20 L 772.90 524.80 L 783.80 521.80 L 795.20 519.20 L 806.60 517.10 L 818.30 515.50 L 830.50 514.50 L 843.20 514.00 L 853.20 514.00 L 873.90 515.20 L 884.70 516.50 L 895.80 518.20 L 906.60 520.20 L 917.60 522.70 L 928.90 525.80 L 940.50 529.40 L 952.40 533.50 L 967.30 539.20 L 980.90 545.10 L 993.40 551.00 L 1004.80 556.90 L 1016.20 563.50 L 1026.60 570.10 L 1036.10 576.60 L 1044.60 583.10 L 1053.10 590.10 L 1060.70 597.10 L 1067.50 603.90 L 1073.70 610.70 L 1079.60 617.90 L 1084.80 624.90 L 1089.40 631.80 L 1093.50 638.50 L 1100.60 652.40 L 1105.80 665.40 L 1108.50 674.10 L 1110.60 682.40 L 1112.20 690.10 L 1113.30 697.80 L 1114.30 711.30 L 1114.20 721.20 L 1113.50 730.90 L 1112.20 740.50 L 1110.30 750.10 L 1107.70 759.50 L 1104.60 768.70 L 1101.00 777.70 L 1096.80 786.60 L 1092.00 795.20 L 1086.80 803.50 L 1081.10 811.50 L 1074.80 819.30 L 1068.20 826.70 L 1061.10 833.70 L 1053.50 840.40 L 1045.50 846.70 L 1037.20 852.50 L 1028.50 857.90 L 1019.30 862.80 L 1009.80 867.30 L 1000.10 871.10 L 990.40 874.30 L 980.80 876.90 L 971.20 878.80 L 961.60 880.20 L 951.90 881.00 L 942.20 881.10 L 932.70 880.70 L 923.20 879.70 L 913.80 878.10 L 904.50 876.00 L 895.40 873.20 L 886.30 869.90 L 877.40 866.00 L 868.50 861.50 L 860.10 856.50 L 851.80 851.00 L 843.60 844.80 L 835.70 838.10 L 827.90 830.70 L 824.30 826.80 L 821.30 822.60 L 818.80 818.40 L 816.70 813.90 L 815.10 809.20 L 813.90 804.40 L 813.20 799.60 L 813.00 794.70 L 813.20 789.80 L 813.90 785.00 L 815.10 780.30 L 816.70 775.60 L 818.80 771.10 L 821.30 766.80 L 824.30 762.70 L 827.90 758.80 L 831.80 755.30 L 835.90 752.20 L 840.20 749.70 L 844.70 747.60 L 849.40 746.00 L 854.10 744.80 L 858.90 744.10 L 863.80 743.90 L 868.70 744.10 L 873.50 744.80 L 878.20 746.00 L 882.90 747.60 L 887.40 749.70 L 891.70 752.20 L 895.80 755.30 L 905.10 763.80 L 910.30 767.90 L 915.30 771.10 L 920.60 773.90 L 925.70 776.00 L 930.60 777.60 L 935.60 778.60 L 940.40 779.20 L 945.00 779.30 L 949.60 779.10 L 958.20 777.70 L 964.20 776.00 L 969.60 773.90 L 975.90 770.80 L 981.80 767.30 L 987.30 763.20 L 992.40 758.70 L 996.90 753.90 L 1001.00 748.70 L 1004.60 743.20 L 1007.50 737.60 L 1009.80 731.90 L 1011.20 727.40 L 1012.60 718.50 L 1012.70 714.10 L 1012.30 709.40 L 1011.50 704.60 L 1010.10 699.90 L 1008.30 695.10 L 1005.80 690.30 L 999.90 681.30 L 992.00 672.30 L 987.10 667.70 L 980.90 662.50 L 974.00 657.30 L 966.10 652.10 L 957.40 647.00 L 948.60 642.30 L 939.10 637.80 L 928.70 633.30 L 917.40 628.90 L 906.50 625.20 L 896.00 622.00 L 885.90 619.40 L 876.20 617.20 L 866.80 615.60 L 857.80 614.50 L 848.30 613.80 L 839.20 613.60 L 830.50 613.90 L 822.10 614.70 L 814.10 615.90 L 806.30 617.60 L 798.50 619.80 L 791.10 622.50 L 783.90 625.60 L 777.10 629.30 L 770.50 633.30 L 764.10 637.90 L 758.20 642.80 L 752.50 648.20 L 747.10 654.10 L 742.00 660.60 L 737.10 667.50 L 732.40 675.10 L 728.00 683.30 L 724.10 692.00 L 720.60 701.00 L 717.70 710.50 L 715.20 720.10 L 713.30 729.90 L 711.90 740.00 L 711.10 750.40 L 710.80 760.70 L 711.10 771.20 L 711.90 781.70 L 713.40 792.40 L 715.40 803.00 L 718.10 813.50 L 721.30 824.00 L 725.20 834.40 L 728.80 842.60 L 732.70 850.60 L 737.10 858.50 L 742.00 866.40 L 747.30 874.10 L 752.90 881.50 L 759.00 888.70 L 765.60 895.70 L 772.70 902.50 L 780.30 909.10 L 788.40 915.50 L 796.80 921.50 L 805.30 927.10 L 814.20 932.20 L 823.20 937.00 L 832.50 941.30 L 841.90 945.20 L 851.50 948.70 L 861.30 951.80 L 871.40 954.50 L 881.50 956.80 L 891.70 958.60 L 902.10 960.00 L 912.60 961.00 L 923.30 961.50 L 933.90 961.70 L 944.70 961.40 L 955.50 960.60 L 966.50 959.50 L 977.50 957.80 L 988.40 955.80 L 999.40 953.40 L 1010.40 950.50 L 1021.40 947.10 L 1032.60 943.30 L 1044.60 938.60 L 1056.10 933.50 L 1067.20 928.10 L 1077.90 922.30 L 1088.40 916.00 L 1098.40 909.50 L 1107.90 902.60 L 1116.90 895.50 L 1125.60 887.90 L 1133.70 880.10 L 1141.20 872.20 L 1148.20 864.00 L 1154.80 855.50 L 1160.80 846.80 L 1166.00 838.10 L 1170.70 829.30 L 1174.10 821.90 L 1177.00 814.60 L 1179.40 807.20 L 1181.40 799.90 L 1183.00 792.40 L 1185.90 774.70 L 1188.10 757.50 L 1189.60 740.70 L 1190.50 724.30 L 1190.80 708.30 L 1190.50 692.60 L 1189.70 678.90 L 1188.40 665.50 L 1186.70 652.50 L 1184.60 639.70 L 1182.00 627.20 L 1179.00 615.10 L 1175.60 603.20 L 1171.70 591.20 L 1167.30 579.60 L 1162.60 568.30 L 1157.40 557.20 L 1151.80 546.50 L 1145.70 536.00 L 1139.30 525.70 L 1132.40 515.80 L 1125.10 506.20 L 1117.40 496.80 L 1109.20 487.70 L 1100.70 478.90 L 1091.60 470.40 L 1082.20 462.10 L 1072.50 454.30 L 1062.40 446.90 L 1051.90 439.70 L 1040.90 432.80 L 1029.50 426.20 L 1017.60 419.90 L 1005.10 413.90 L 991.50 408.00 L 977.80 402.70 L 963.80 397.90 L 949.60 393.80 L 935.30 390.20 L 920.90 387.20 L 906.30 384.80 L 891.70 382.90 L 877.00 381.70 L 862.40 381.00 L 847.70 381.00 L 833.10 381.50 L 818.50 382.60 L 804.00 384.20 L 789.60 386.50 L 775.40 389.30 L 761.30 392.80 L 747.40 396.80 L 733.70 401.40 L 720.30 406.60 L 708.80 411.60 L 697.70 417.00 L 686.80 422.70 L 676.10 428.90 L 665.70 435.40 L 655.60 442.30 L 645.70 449.60 L 636.00 457.30 L 626.70 465.30 L 617.50 473.80 L 608.60 482.60 L 599.90 491.90 L 590.00 503.30 L 580.50 515.20 L 571.30 527.70 L 562.40 540.80 L 554.00 554.50 L 546.10 568.40 L 538.60 582.70 L 531.50 597.70 L 524.80 613.30 L 518.50 629.50 L 513.00 645.10 L 508.20 660.30 L 504.10 675.20 L 500.70 689.70 L 498.00 704.00 L 495.90 717.90 L 494.40 731.50 L 493.50 744.90 L 493.20 758.00 L 493.40 770.20 L 494.10 782.20 L 495.40 794.00 L 497.10 805.60 L 499.30 817.00 L 502.10 828.20 L 505.30 839.30 L 509.00 850.20 L 513.20 860.90 L 518.00 871.60 L 523.40 882.40 L 529.20 893.00 L 535.40 903.40 L 541.90 913.40 L 556.00 932.80 L 571.00 951.00 L 581.60 962.60 L 592.30 973.70 L 603.20 984.20 L 614.30 994.30 L 625.30 1003.80 L 647.30 1021.40 L 668.00 1036.50 L 683.10 1046.80 L 696.50 1055.40 L 719.60 1069.10 L 735.30 1077.50 L 741.20 1080.40 L 753.20 1084.90 L 760.80 1088.80 L 765.40 1092.60 L 767.00 1094.50 L 768.30 1096.80 L 769.20 1099.30 L 769.70 1102.10 L 769.80 1105.40 L 769.40 1109.70 L 768.20 1115.10 L 766.20 1121.80 L 765.60 1122.90 L 763.10 1124.90 L 761.10 1125.70 L 754.80 1127.20 L 744.10 1128.10 L 708.60 1127.90 L 675.70 1123.50 Z" fill="#dea66c" fill-rule="nonzero" group-id="1" id="Shape" node-id="25" stroke="none" target-height="849.3" target-width="901.10004" target-x="391.3" target-y="278.8"></path><path d="M 861.00 534.60 L 849.30 534.90 L 837.80 535.60 L 826.50 536.70 L 815.40 538.40 L 804.50 540.40 L 793.60 542.90 L 782.90 545.90 L 772.50 549.20 L 762.30 552.90 L 752.40 557.00 L 742.60 561.50 L 733.10 566.40 L 723.80 571.60 L 714.90 577.20 L 706.20 583.10 L 697.70 589.40 L 689.60 595.90 L 681.80 602.80 L 674.40 609.90 L 667.20 617.40 L 660.40 625.10 L 654.00 633.10 L 647.90 641.40 L 642.20 649.80 L 636.90 658.60 L 632.00 667.50 L 627.60 676.70 L 623.50 686.10 L 619.90 695.60 L 616.70 705.40 L 614.00 715.30 L 611.80 725.40 L 610.00 735.60 L 608.70 746.00 L 607.90 756.60 L 607.60 746.00 L 607.90 734.90 L 608.70 724.10 L 610.10 713.40 L 611.90 703.00 L 614.30 692.70 L 617.20 682.40 L 620.60 672.40 L 624.40 662.60 L 628.60 653.10 L 633.40 643.70 L 638.50 634.50 L 644.10 625.70 L 650.10 617.00 L 656.50 608.60 L 663.30 600.50 L 670.40 592.70 L 677.90 585.20 L 685.80 578.00 L 694.00 571.10 L 702.50 564.50 L 711.30 558.30 L 720.40 552.40 L 729.80 546.90 L 739.50 541.80 L 749.60 537.00 L 759.70 532.70 L 770.10 528.80 L 780.80 525.30 L 791.70 522.20 L 802.90 519.50 L 814.10 517.30 L 825.50 515.60 L 837.10 514.40 L 848.90 513.60 L 861.00 513.40 L 873.10 513.60 L 884.90 514.40 L 896.50 515.60 L 907.90 517.30 L 919.10 519.50 L 930.30 522.20 L 941.20 525.30 L 951.90 528.80 L 962.30 532.70 L 972.40 537.00 L 982.50 541.80 L 992.20 546.90 L 1001.60 552.40 L 1010.70 558.30 L 1019.50 564.50 L 1028.10 571.10 L 1036.30 578.00 L 1044.10 585.20 L 1051.60 592.70 L 1058.70 600.50 L 1065.50 608.60 L 1071.90 617.00 L 1077.90 625.60 L 1083.50 634.50 L 1088.60 643.70 L 1093.40 653.10 L 1097.60 662.60 L 1101.50 672.40 L 1104.80 682.40 L 1107.70 692.70 L 1110.10 703.00 L 1111.90 713.40 L 1113.30 724.10 L 1114.10 734.90 L 1114.40 747.00 L 1113.60 735.40 L 1112.30 725.00 L 1110.60 714.90 L 1108.30 705.00 L 1105.60 695.40 L 1102.40 685.80 L 1098.80 676.50 L 1094.70 667.50 L 1090.20 658.60 L 1085.30 650.10 L 1080.00 641.70 L 1074.30 633.60 L 1068.30 625.80 L 1061.80 618.20 L 1055.00 610.90 L 1047.80 603.90 L 1040.40 597.30 L 1032.60 590.90 L 1024.50 584.70 L 1016.00 578.90 L 1007.30 573.50 L 998.30 568.30 L 989.10 563.50 L 979.60 559.10 L 969.70 554.90 L 959.80 551.20 L 949.60 547.80 L 939.20 544.80 L 928.50 542.10 L 917.60 539.80 L 906.70 538.00 L 895.60 536.50 L 884.30 535.50 L 872.70 534.80 L 861.00 534.60 Z" fill="#e4bc96" fill-rule="nonzero" group-id="1" id="Shape" node-id="26" stroke="none" target-height="243.19995" target-width="506.80005" target-x="607.6" target-y="513.4"></path><path d="M 1068.80 927.30 L 1058.20 933.20 L 1039.90 942.20 L 1027.70 947.50 L 1009.90 954.40 L 989.30 961.10 L 978.30 964.10 L 966.70 966.90 L 955.00 969.20 L 942.90 971.00 L 930.30 972.40 L 920.90 973.00 L 911.40 973.20 L 901.80 973.00 L 892.00 972.40 L 882.30 971.40 L 872.60 969.80 L 862.90 967.70 L 853.10 965.00 L 845.50 962.50 L 837.80 959.60 L 830.20 956.20 L 822.60 952.40 L 815.10 948.20 L 807.80 943.60 L 800.60 938.50 L 793.50 932.90 L 786.40 926.70 L 779.30 919.90 L 772.80 913.00 L 766.30 905.40 L 759.90 897.10 L 753.50 888.00 L 747.30 878.20 L 741.70 868.50 L 736.10 858.00 L 730.80 846.60 L 725.50 834.30 L 720.40 821.10 L 724.90 831.10 L 729.00 839.00 L 733.90 847.40 L 740.60 857.70 L 745.40 864.60 L 757.50 879.80 L 764.30 887.30 L 771.90 895.00 L 780.40 902.80 L 794.10 913.80 L 801.60 919.20 L 809.70 924.50 L 817.90 929.30 L 826.70 933.90 L 836.00 938.20 L 845.90 942.20 L 855.80 945.80 L 866.30 948.90 L 877.50 951.60 L 889.40 953.80 L 898.70 955.20 L 908.50 956.10 L 918.70 956.70 L 929.50 957.00 L 940.70 956.80 L 951.60 956.20 L 962.90 955.10 L 974.80 953.50 L 987.30 951.40 L 1000.30 948.70 L 1012.80 945.70 L 1025.90 942.10 L 1039.50 937.80 L 1053.80 932.90 L 1068.80 927.30 Z" fill="#e4bc96" fill-rule="nonzero" group-id="1" id="Shape" node-id="27" stroke="none" target-height="152.10004" target-width="348.40002" target-x="720.4" target-y="821.1"></path><g node-id="99"><g node-id="104"><path d="M 1217.30 704.00 L 1216.40 687.60 L 1213.90 664.80 L 1211.50 650.20 L 1207.30 629.40 L 1201.30 606.00 L 1197.60 593.70 L 1193.20 580.70 L 1188.40 568.00 L 1182.90 554.90 L 1176.70 541.40 L 1166.30 521.60 L 1154.10 501.40 L 1147.40 491.60 L 1140.20 481.90 L 1132.50 472.20 L 1124.20 462.60 L 1115.70 453.40 L 1106.50 444.40 L 1096.70 435.50 L 1086.30 426.80 L 1077.80 420.20 L 1068.80 413.80 L 1059.40 407.60 L 1049.50 401.60 L 1039.20 395.70 L 1028.80 390.40 L 1017.90 385.20 L 1006.50 380.30 L 994.50 375.70 L 982.00 371.30 L 969.60 367.50 L 956.60 363.90 L 942.90 360.70 L 928.60 357.80 L 913.70 355.30 L 899.00 353.30 L 883.70 351.80 L 867.70 350.60 L 850.90 349.90 L 833.30 349.60 L 817.40 349.90 L 802.30 350.80 L 787.70 352.10 L 773.80 354.00 L 760.50 356.30 L 746.90 359.20 L 733.90 362.60 L 721.50 366.30 L 709.50 370.40 L 698.10 374.90 L 686.60 379.90 L 675.60 385.20 L 665.10 390.90 L 655.00 396.80 L 645.30 403.00 L 633.40 411.40 L 622.10 420.00 L 611.40 429.00 L 601.30 438.40 L 591.50 448.20 L 582.30 458.20 L 573.60 468.30 L 565.40 478.70 L 557.50 489.40 L 550.10 500.10 L 543.20 510.80 L 536.70 521.60 L 528.60 536.30 L 521.20 550.70 L 514.50 564.80 L 508.30 579.20 L 502.90 592.90 L 493.60 619.30 L 486.50 642.90 L 482.20 659.50 L 476.60 685.70 L 472.90 708.20 L 471.80 711.60 L 470.20 714.70 L 468.20 717.70 L 466.00 720.30 L 463.40 722.60 L 460.50 724.60 L 457.40 726.10 L 454.10 727.30 L 450.70 728.10 L 447.10 728.40 L 443.40 728.20 L 439.70 727.50 L 436.30 726.30 L 433.20 724.80 L 430.20 722.80 L 427.60 720.60 L 425.30 718.00 L 423.30 715.10 L 421.70 712.00 L 420.60 708.70 L 419.80 705.30 L 419.50 701.70 L 419.70 698.00 L 421.90 684.00 L 426.10 662.60 L 433.20 633.90 L 438.10 616.90 L 445.80 593.20 L 455.50 567.40 L 467.20 540.20 L 473.70 526.50 L 480.80 512.60 L 488.70 498.40 L 497.10 484.10 L 505.90 470.40 L 514.90 457.30 L 524.10 444.80 L 533.70 432.90 L 543.40 421.50 L 553.50 410.60 L 564.10 399.90 L 575.00 389.80 L 586.10 380.20 L 597.50 371.10 L 609.20 362.60 L 621.10 354.60 L 633.30 347.00 L 645.90 340.00 L 658.60 333.40 L 671.70 327.40 L 685.10 321.90 L 698.70 316.90 L 712.70 312.40 L 727.00 308.40 L 741.20 304.90 L 755.70 302.00 L 770.60 299.70 L 785.70 297.80 L 801.20 296.40 L 817.10 295.60 L 833.30 295.30 L 852.80 295.60 L 871.40 296.40 L 889.20 297.70 L 906.20 299.50 L 922.40 301.80 L 939.10 304.60 L 955.00 307.80 L 970.10 311.40 L 984.60 315.30 L 998.40 319.60 L 1012.40 324.40 L 1025.70 329.60 L 1038.40 335.00 L 1050.50 340.60 L 1062.10 346.50 L 1073.70 352.90 L 1084.70 359.50 L 1095.20 366.30 L 1105.20 373.20 L 1114.70 380.30 L 1126.30 389.70 L 1137.30 399.30 L 1147.50 408.90 L 1157.10 418.70 L 1166.40 428.90 L 1175.10 439.10 L 1183.10 449.30 L 1190.50 459.40 L 1197.70 469.90 L 1210.40 490.30 L 1215.90 500.20 L 1223.40 514.60 L 1230.10 528.80 L 1236.10 542.70 L 1241.60 556.90 L 1246.50 570.50 L 1254.60 596.80 L 1260.60 621.00 L 1264.20 638.30 L 1266.80 653.30 L 1268.80 667.50 L 1270.90 689.30 L 1271.60 703.60 L 1271.40 707.30 L 1270.70 710.80 L 1269.60 714.20 L 1268.00 717.30 L 1266.10 720.20 L 1263.80 722.80 L 1261.20 725.20 L 1258.40 727.10 L 1255.20 728.70 L 1251.90 729.90 L 1248.40 730.60 L 1244.70 730.90 L 1240.90 730.70 L 1237.40 730.00 L 1234.10 728.90 L 1230.90 727.30 L 1228.00 725.40 L 1225.40 723.10 L 1223.10 720.50 L 1221.10 717.70 L 1219.50 714.50 L 1218.30 711.20 L 1217.60 707.70 L 1217.30 704.00 Z" fill="#ffffff" fill-opacity="0.21" fill-rule="nonzero" group-id="1,5,10" node-id="93" stroke="none" target-height="435.60004" target-width="852.1" target-x="419.5" target-y="295.3"></path></g></g><g node-id="100"><path d="M 414.80 807.80 L 415.10 811.20 L 415.80 814.80 L 418.50 822.40 L 422.70 829.80 L 428.00 836.60 L 434.20 842.50 L 440.70 846.80 L 444.20 848.20 L 447.70 849.10 L 451.00 849.40 L 454.30 849.10 L 457.40 848.20 L 460.20 846.80 L 462.70 844.80 L 465.10 842.50 L 467.30 839.70 L 470.90 833.40 L 472.30 829.80 L 474.10 824.30 L 475.40 818.70 L 476.10 813.00 L 476.40 807.80 L 476.20 804.40 L 474.80 796.40 L 472.90 790.20 L 470.40 783.90 L 466.20 776.00 L 461.00 769.10 L 458.20 766.30 L 455.30 764.00 L 450.50 761.60 L 445.60 760.80 L 440.70 761.60 L 435.90 764.00 L 433.00 766.30 L 430.10 769.10 L 425.00 776.00 L 420.80 783.90 L 418.30 790.20 L 416.40 796.40 L 415.50 800.60 L 414.80 807.80 Z" fill="#ffffff" fill-opacity="0.27" fill-rule="nonzero" group-id="1,6" id="Shape" node-id="32" stroke="none" target-height="88.60004" target-width="61.600006" target-x="414.8" target-y="760.8"></path></g><g node-id="101"><path d="M 447.40 899.20 L 448.40 904.00 L 449.60 906.90 L 452.00 911.00 L 455.20 915.30 L 458.90 919.30 L 463.00 923.00 L 467.20 926.30 L 471.40 928.70 L 474.20 929.90 L 479.10 930.90 L 481.30 930.60 L 483.00 929.90 L 484.50 928.70 L 486.70 925.30 L 487.50 923.00 L 488.80 915.30 L 489.00 899.20 L 488.80 896.30 L 487.40 891.10 L 486.20 888.70 L 484.10 885.80 L 481.60 883.30 L 478.70 881.20 L 476.30 880.00 L 471.10 878.60 L 468.20 878.40 L 462.60 879.20 L 457.70 881.20 L 454.80 883.30 L 452.30 885.80 L 450.30 888.70 L 448.20 893.60 L 447.40 899.20 Z" fill="#ffffff" fill-opacity="0.27" fill-rule="nonzero" group-id="1,7" id="Shape" node-id="34" stroke="none" target-height="52.5" target-width="41.600006" target-x="447.4" target-y="878.4"></path></g><path d="M 232.10 850.40 L 231.90 854.60 L 231.20 858.60 L 230.30 862.50 L 228.90 866.20 L 225.10 873.10 L 220.20 879.10 L 214.10 884.10 L 207.20 887.90 L 203.50 889.20 L 199.60 890.20 L 195.60 890.80 L 191.40 891.10 L 187.10 890.80 L 183.10 890.20 L 179.20 889.20 L 171.90 886.10 L 165.50 881.80 L 159.90 876.20 L 155.60 869.80 L 152.50 862.50 L 151.50 858.60 L 150.90 854.60 L 150.70 850.40 L 150.90 846.10 L 151.50 842.10 L 152.50 838.20 L 155.60 830.90 L 159.90 824.50 L 165.50 818.90 L 168.60 816.60 L 175.50 812.80 L 179.20 811.50 L 183.10 810.50 L 187.10 809.90 L 191.40 809.60 L 195.60 809.90 L 199.60 810.50 L 203.50 811.50 L 207.20 812.80 L 214.10 816.60 L 220.20 821.60 L 225.10 827.60 L 228.90 834.50 L 230.30 838.20 L 231.20 842.10 L 231.90 846.10 L 232.10 850.40 Z" fill="#edd9c4" fill-rule="nonzero" group-id="1" id="Oval" node-id="35" stroke="none" target-height="81.5" target-width="81.40001" target-x="150.7" target-y="809.6"></path><path d="M 227.70 900.30 L 227.50 904.50 L 226.70 908.60 L 225.30 912.50 L 223.50 916.20 L 221.20 919.60 L 218.40 922.80 L 215.30 925.50 L 211.80 927.80 L 208.10 929.70 L 204.20 931.00 L 200.20 931.80 L 196.00 932.10 L 191.80 931.80 L 187.70 931.00 L 183.80 929.70 L 180.10 927.80 L 176.70 925.50 L 173.50 922.80 L 170.80 919.60 L 168.50 916.20 L 166.60 912.50 L 165.30 908.60 L 164.50 904.50 L 164.20 900.30 L 164.50 896.10 L 165.30 892.10 L 166.60 888.20 L 168.50 884.50 L 170.80 881.00 L 173.50 877.90 L 176.70 875.10 L 180.10 872.80 L 183.80 871.00 L 187.70 869.70 L 191.80 868.80 L 196.00 868.60 L 200.20 868.80 L 204.20 869.70 L 208.10 871.00 L 211.80 872.80 L 215.30 875.10 L 218.40 877.90 L 221.20 881.00 L 223.50 884.50 L 225.30 888.20 L 226.70 892.10 L 227.50 896.10 L 227.70 900.30 Z" fill="#edd9c4" fill-rule="nonzero" group-id="1" id="Oval" node-id="36" stroke="none" target-height="63.5" target-width="63.5" target-x="164.2" target-y="868.6"></path><path d="M 213.10 813.00 L 212.80 817.20 L 212.00 821.20 L 210.70 824.90 L 208.90 828.50 L 206.70 831.70 L 204.10 834.60 L 201.20 837.20 L 198.00 839.40 L 194.40 841.20 L 190.70 842.50 L 186.70 843.30 L 182.60 843.60 L 178.40 843.30 L 174.40 842.50 L 170.70 841.20 L 167.10 839.40 L 163.90 837.20 L 161.00 834.60 L 158.40 831.70 L 156.20 828.50 L 154.40 824.90 L 153.10 821.20 L 152.30 817.20 L 152.00 813.00 L 152.30 808.80 L 153.10 804.90 L 154.40 801.10 L 156.20 797.60 L 158.40 794.40 L 161.00 791.40 L 163.90 788.90 L 167.10 786.70 L 170.70 784.90 L 174.40 783.60 L 178.40 782.80 L 182.60 782.50 L 186.70 782.80 L 190.70 783.60 L 194.40 784.90 L 198.00 786.70 L 201.20 788.90 L 204.10 791.40 L 206.70 794.40 L 208.90 797.60 L 210.70 801.10 L 212.00 804.90 L 212.80 808.80 L 213.10 813.00 Z" fill="#edd9c4" fill-rule="nonzero" group-id="1" id="Oval" node-id="37" stroke="none" target-height="61.099976" target-width="61.100006" target-x="152" target-y="782.5"></path><path d="M 287.00 931.40 L 286.80 934.20 L 286.00 936.80 L 284.70 939.20 L 283.00 941.30 L 280.80 943.00 L 278.50 944.30 L 275.90 945.10 L 273.10 945.30 L 270.40 945.10 L 267.80 944.30 L 265.40 943.00 L 263.30 941.30 L 261.60 939.20 L 260.30 936.80 L 259.50 934.20 L 259.20 931.40 L 259.50 928.70 L 260.30 926.10 L 261.60 923.70 L 263.30 921.60 L 265.40 919.90 L 267.80 918.60 L 270.40 917.80 L 273.10 917.50 L 275.90 917.80 L 278.50 918.60 L 280.80 919.90 L 283.00 921.60 L 284.70 923.70 L 286.00 926.10 L 286.80 928.70 L 287.00 931.40 Z" fill="#edd9c4" fill-rule="nonzero" group-id="1" id="Oval" node-id="38" stroke="none" target-height="27.799988" target-width="27.799988" target-x="259.2" target-y="917.5"></path><path d="M 259.20 760.80 L 259.00 763.40 L 258.20 766.00 L 256.90 768.30 L 255.20 770.40 L 253.20 772.10 L 250.80 773.30 L 248.30 774.10 L 245.70 774.40 L 243.00 774.10 L 240.50 773.30 L 238.10 772.10 L 236.10 770.40 L 234.40 768.30 L 233.10 766.00 L 232.30 763.40 L 232.10 760.80 L 232.30 758.10 L 233.10 755.60 L 234.40 753.30 L 236.10 751.20 L 238.10 749.50 L 240.50 748.20 L 243.00 747.50 L 245.70 747.20 L 248.30 747.50 L 250.80 748.20 L 253.20 749.50 L 255.20 751.20 L 256.90 753.30 L 258.20 755.60 L 259.00 758.10 L 259.20 760.80 Z" fill="#edd9c4" fill-rule="nonzero" group-id="1" id="Oval" node-id="39" stroke="none" target-height="27.200012" target-width="27.100006" target-x="232.1" target-y="747.2"></path><path d="M 992.00 1064.80 L 991.30 1072.50 L 989.10 1079.60 L 986.80 1084.00 L 984.10 1088.00 L 980.90 1091.60 L 977.30 1094.90 L 973.20 1097.60 L 968.80 1099.80 L 961.80 1102.00 L 954.00 1102.80 L 946.30 1102.00 L 939.20 1099.80 L 934.80 1097.60 L 930.80 1094.90 L 927.20 1091.60 L 924.00 1088.00 L 921.20 1084.00 L 919.00 1079.60 L 916.80 1072.50 L 916.30 1068.70 L 916.00 1064.80 L 916.30 1060.80 L 917.70 1053.40 L 919.00 1050.00 L 921.20 1045.60 L 924.00 1041.50 L 927.20 1037.90 L 930.80 1034.70 L 934.80 1032.00 L 939.20 1029.80 L 946.30 1027.50 L 954.00 1026.80 L 961.80 1027.50 L 968.80 1029.80 L 973.20 1032.00 L 977.30 1034.70 L 980.90 1037.90 L 984.10 1041.50 L 986.80 1045.60 L 989.10 1050.00 L 991.30 1057.10 L 992.00 1064.80 Z" fill="#d59758" fill-rule="nonzero" group-id="1" id="Oval" node-id="40" stroke="none" target-height="76" target-width="76" target-x="916" target-y="1026.8"></path><path d="M 932.60 1075.60 L 932.30 1079.90 L 931.40 1084.00 L 930.10 1087.80 L 928.30 1091.50 L 926.00 1094.80 L 923.40 1097.80 L 920.40 1100.40 L 917.10 1102.70 L 913.40 1104.50 L 909.60 1105.80 L 905.50 1106.70 L 901.20 1107.00 L 896.90 1106.70 L 892.90 1105.80 L 889.00 1104.50 L 885.40 1102.70 L 882.10 1100.40 L 879.10 1097.80 L 876.40 1094.80 L 874.20 1091.50 L 872.40 1087.80 L 871.00 1084.00 L 870.20 1079.90 L 869.90 1075.60 L 870.20 1071.30 L 871.00 1067.30 L 872.40 1063.40 L 874.20 1059.80 L 876.40 1056.50 L 879.10 1053.50 L 882.10 1050.80 L 885.40 1048.60 L 889.00 1046.80 L 892.90 1045.40 L 896.90 1044.60 L 901.20 1044.30 L 905.50 1044.60 L 909.60 1045.40 L 913.40 1046.80 L 917.10 1048.60 L 920.40 1050.80 L 923.40 1053.50 L 926.00 1056.50 L 928.30 1059.80 L 930.10 1063.40 L 931.40 1067.30 L 932.30 1071.30 L 932.60 1075.60 Z" fill="#d59758" fill-rule="nonzero" group-id="1" id="Oval" node-id="41" stroke="none" target-height="62.69995" target-width="62.69995" target-x="869.9" target-y="1044.3"></path><path d="M 1030.00 1060.70 L 1029.80 1064.10 L 1029.20 1067.40 L 1028.10 1070.60 L 1026.60 1073.60 L 1024.70 1076.40 L 1022.50 1078.90 L 1019.90 1081.20 L 1017.10 1083.00 L 1014.10 1084.50 L 1010.90 1085.60 L 1007.70 1086.20 L 1004.30 1086.50 L 1000.80 1086.20 L 997.60 1085.60 L 994.40 1084.50 L 991.40 1083.00 L 988.60 1081.20 L 986.00 1078.90 L 983.80 1076.40 L 981.90 1073.60 L 980.40 1070.60 L 979.40 1067.40 L 978.70 1064.10 L 978.50 1060.70 L 978.70 1057.30 L 979.40 1054.00 L 980.40 1050.80 L 981.90 1047.80 L 983.80 1045.00 L 986.00 1042.50 L 988.60 1040.20 L 991.40 1038.40 L 994.40 1036.90 L 997.60 1035.80 L 1000.80 1035.10 L 1004.30 1034.90 L 1007.70 1035.10 L 1010.90 1035.80 L 1014.10 1036.90 L 1017.10 1038.40 L 1019.90 1040.20 L 1022.50 1042.50 L 1024.70 1045.00 L 1026.60 1047.80 L 1028.10 1050.80 L 1029.20 1054.00 L 1029.80 1057.30 L 1030.00 1060.70 Z" fill="#d59758" fill-rule="nonzero" group-id="1" id="Oval" node-id="42" stroke="none" target-height="51.599976" target-width="51.5" target-x="978.5" target-y="1034.9"></path><path d="M 1065.30 1003.70 L 1065.20 1006.00 L 1064.00 1010.50 L 1061.70 1014.40 L 1060.20 1016.20 L 1058.40 1017.70 L 1054.40 1020.00 L 1050.00 1021.20 L 1047.70 1021.30 L 1045.30 1021.20 L 1040.90 1020.00 L 1037.00 1017.70 L 1035.20 1016.20 L 1032.40 1012.50 L 1030.60 1008.30 L 1030.20 1006.00 L 1030.00 1003.70 L 1030.60 999.10 L 1032.40 994.90 L 1035.20 991.20 L 1037.00 989.70 L 1040.90 987.40 L 1045.30 986.20 L 1047.70 986.10 L 1050.00 986.20 L 1054.40 987.40 L 1058.40 989.70 L 1060.20 991.20 L 1061.70 993.00 L 1064.00 996.90 L 1065.20 1001.40 L 1065.30 1003.70 Z" fill="#d59758" fill-rule="nonzero" group-id="1" id="Oval" node-id="43" stroke="none" target-height="35.200012" target-width="35.30005" target-x="1030" target-y="986.1"></path><path d="M 955.80 779.80 L 955.60 782.70 L 954.20 787.90 L 953.00 790.30 L 950.90 793.20 L 948.40 795.70 L 945.50 797.80 L 943.10 799.00 L 937.90 800.40 L 935.00 800.60 L 932.10 800.40 L 926.90 799.00 L 924.50 797.80 L 921.60 795.70 L 919.10 793.20 L 917.10 790.30 L 915.00 785.40 L 914.40 782.70 L 914.20 779.80 L 915.00 774.20 L 917.10 769.30 L 919.10 766.40 L 921.60 763.90 L 924.50 761.90 L 926.90 760.70 L 932.10 759.20 L 935.00 759.00 L 937.90 759.20 L 943.10 760.70 L 945.50 761.90 L 948.40 763.90 L 950.90 766.40 L 953.00 769.30 L 954.20 771.70 L 955.60 776.90 L 955.80 779.80 Z" fill="#d59758" fill-rule="nonzero" group-id="1" id="Oval" node-id="44" stroke="none" target-height="41.599976" target-width="41.599976" target-x="914.2" target-y="759"></path><path d="M 975.10 768.40 L 974.90 771.00 L 973.60 775.90 L 971.10 780.20 L 969.40 782.20 L 967.40 783.90 L 963.00 786.40 L 958.20 787.70 L 955.60 787.90 L 953.00 787.70 L 948.10 786.40 L 943.80 783.90 L 941.80 782.20 L 938.70 778.10 L 936.80 773.50 L 936.30 771.00 L 936.10 768.40 L 936.80 763.40 L 938.70 758.70 L 941.80 754.70 L 943.80 753.00 L 948.10 750.40 L 953.00 749.10 L 955.60 749.00 L 958.20 749.10 L 963.00 750.40 L 967.40 753.00 L 969.40 754.70 L 971.10 756.60 L 973.60 761.00 L 974.90 765.80 L 975.10 768.40 Z" fill="#d59758" fill-rule="nonzero" group-id="1" id="Oval" node-id="45" stroke="none" target-height="38.900024" target-width="39" target-x="936.1" target-y="749"></path><path d="M 914.10 757.00 L 913.80 759.50 L 913.10 761.90 L 912.00 764.00 L 910.40 766.00 L 908.40 767.60 L 906.30 768.70 L 903.90 769.40 L 901.40 769.70 L 898.90 769.40 L 896.60 768.70 L 894.40 767.60 L 892.50 766.00 L 890.90 764.00 L 889.70 761.90 L 889.00 759.50 L 888.80 757.00 L 889.00 754.50 L 889.70 752.20 L 890.90 750.00 L 892.50 748.10 L 894.40 746.50 L 896.60 745.30 L 898.90 744.60 L 901.40 744.40 L 903.90 744.60 L 906.30 745.30 L 908.40 746.50 L 910.40 748.10 L 912.00 750.00 L 913.10 752.20 L 913.80 754.50 L 914.10 757.00 Z" fill="#d59758" fill-rule="nonzero" group-id="1" id="Oval" node-id="46" stroke="none" target-height="25.299988" target-width="25.299988" target-x="888.8" target-y="744.4"></path><path d="M 938.50 774.70 L 938.30 777.80 L 936.80 783.30 L 935.50 785.90 L 933.30 789.00 L 930.70 791.60 L 927.60 793.80 L 925.00 795.10 L 919.50 796.60 L 916.40 796.80 L 913.40 796.60 L 907.80 795.10 L 905.30 793.80 L 902.20 791.60 L 899.50 789.00 L 897.30 785.90 L 895.10 780.60 L 894.60 777.80 L 894.30 774.70 L 895.10 768.80 L 897.30 763.60 L 899.50 760.50 L 902.20 757.80 L 905.30 755.60 L 907.80 754.40 L 913.40 752.80 L 916.40 752.60 L 919.50 752.80 L 925.00 754.40 L 927.60 755.60 L 930.70 757.80 L 933.30 760.50 L 935.50 763.60 L 936.80 766.10 L 938.30 771.70 L 938.50 774.70 Z" fill="#d59758" fill-rule="nonzero" group-id="1" id="Oval" node-id="47" stroke="none" target-height="44.200012" target-width="44.200012" target-x="894.3" target-y="752.6"></path><path d="M 1017.40 773.50 L 1017.00 775.90 L 1016.10 778.00 L 1014.70 779.80 L 1012.90 781.30 L 1010.70 782.20 L 1008.30 782.50 L 1005.90 782.20 L 1003.80 781.30 L 1001.90 779.80 L 1000.50 778.00 L 999.60 775.90 L 999.30 773.50 L 999.60 771.00 L 1000.50 768.90 L 1001.90 767.10 L 1003.80 765.60 L 1005.90 764.70 L 1008.30 764.40 L 1010.70 764.70 L 1012.90 765.60 L 1014.70 767.10 L 1016.10 768.90 L 1017.00 771.00 L 1017.40 773.50 Z" fill="#d59758" fill-rule="nonzero" group-id="1" id="Oval" node-id="48" stroke="none" target-height="18.099976" target-width="18.100037" target-x="999.3" target-y="764.4"></path><g node-id="102"><path d="M 532.40 954.40 L 532.10 956.80 L 531.20 959.00 L 529.80 960.80 L 528.00 962.20 L 525.80 963.10 L 523.40 963.40 L 521.00 963.10 L 518.80 962.20 L 517.00 960.80 L 515.60 959.00 L 514.70 956.80 L 514.40 954.40 L 514.70 952.00 L 515.60 949.80 L 517.00 948.00 L 518.80 946.60 L 521.00 945.70 L 523.40 945.30 L 525.80 945.70 L 528.00 946.60 L 529.80 948.00 L 531.20 949.80 L 532.10 952.00 L 532.40 954.40 Z" fill="#ffffff" fill-opacity="0.27" fill-rule="nonzero" group-id="1,8" id="Oval" node-id="50" stroke="none" target-height="18.100037" target-width="18" target-x="514.4" target-y="945.3"></path></g><path d="M 192.60 786.40 L 192.40 790.00 L 191.70 793.50 L 190.70 796.70 L 189.20 799.90 L 187.50 802.70 L 185.40 805.20 L 183.00 807.50 L 180.40 809.40 L 177.60 810.90 L 174.60 812.10 L 171.40 812.80 L 168.00 813.00 L 164.60 812.80 L 161.40 812.10 L 158.40 810.90 L 155.60 809.40 L 153.00 807.50 L 150.60 805.20 L 148.50 802.70 L 146.80 799.90 L 145.30 796.70 L 144.30 793.50 L 143.60 790.00 L 143.40 786.40 L 143.60 782.70 L 144.30 779.30 L 145.30 776.00 L 146.80 772.90 L 148.50 770.10 L 150.60 767.50 L 153.00 765.30 L 155.60 763.40 L 158.40 761.80 L 161.40 760.70 L 164.60 760.00 L 168.00 759.70 L 171.40 760.00 L 174.60 760.70 L 177.60 761.80 L 180.40 763.40 L 183.00 765.30 L 185.40 767.50 L 187.50 770.10 L 189.20 772.90 L 190.70 776.00 L 191.70 779.30 L 192.40 782.70 L 192.60 786.40 Z" fill="#edd9c4" fill-rule="nonzero" group-id="1" id="Oval" node-id="51" stroke="none" target-height="53.299988" target-width="49.200012" target-x="143.4" target-y="759.7"></path><path d="M 208.10 730.10 L 207.90 731.40 L 206.60 733.60 L 204.50 734.90 L 203.10 735.10 L 200.60 734.40 L 198.80 732.60 L 198.30 731.40 L 198.10 730.10 L 198.80 727.50 L 200.60 725.70 L 203.10 725.10 L 204.50 725.20 L 206.60 726.50 L 207.90 728.70 L 208.10 730.10 Z" fill="#edd9c4" fill-rule="nonzero" group-id="1" id="Oval" node-id="52" stroke="none" target-height="10" target-width="10" target-x="198.1" target-y="725.1"></path><path d="M 246.40 807.80 L 246.20 809.20 L 244.90 811.50 L 242.60 812.80 L 241.20 813.00 L 238.50 812.30 L 236.60 810.40 L 236.10 809.20 L 235.90 807.80 L 236.60 805.10 L 238.50 803.30 L 241.20 802.50 L 242.60 802.70 L 244.90 804.10 L 246.20 806.40 L 246.40 807.80 Z" fill="#edd9c4" fill-rule="nonzero" group-id="1" id="Oval" node-id="53" stroke="none" target-height="10.5" target-width="10.5" target-x="235.9" target-y="802.5"></path><path d="M 255.50 883.20 L 255.40 884.80 L 254.20 887.50 L 252.10 889.70 L 249.30 890.80 L 246.20 890.80 L 243.50 889.70 L 241.30 887.50 L 240.20 884.80 L 240.20 881.70 L 241.30 878.90 L 243.50 876.80 L 246.20 875.60 L 249.30 875.60 L 252.10 876.80 L 254.20 878.90 L 255.40 881.70 L 255.50 883.20 Z" fill="#edd9c4" fill-rule="nonzero" group-id="1" id="Oval" node-id="54" stroke="none" target-height="15.200012" target-width="15.300003" target-x="240.2" target-y="875.6"></path><g node-id="103"><path d="M 1054.30 62.30 L 1054.00 67.10 L 1053.10 71.50 L 1051.60 75.70 L 1049.60 79.70 L 1047.20 83.40 L 1044.30 86.70 L 1041.00 89.60 L 1037.30 92.00 L 1033.30 94.00 L 1029.10 95.50 L 1024.70 96.40 L 1020.00 96.70 L 1015.20 96.40 L 1010.80 95.50 L 1006.60 94.00 L 1002.60 92.00 L 999.00 89.60 L 995.70 86.70 L 992.70 83.40 L 990.30 79.70 L 988.30 75.70 L 986.80 71.50 L 985.90 67.10 L 985.60 62.30 L 985.90 57.60 L 986.80 53.20 L 988.30 49.00 L 990.30 45.00 L 992.70 41.30 L 995.70 38.00 L 999.00 35.10 L 1002.60 32.70 L 1006.60 30.70 L 1010.80 29.20 L 1015.20 28.30 L 1020.00 28.00 L 1024.70 28.30 L 1029.10 29.20 L 1033.30 30.70 L 1037.30 32.70 L 1041.00 35.10 L 1044.30 38.00 L 1047.20 41.30 L 1049.60 45.00 L 1051.60 49.00 L 1053.10 53.20 L 1054.00 57.60 L 1054.30 62.30 Z" fill="#d59758" fill-opacity="0.45" fill-rule="nonzero" group-id="1,9" id="Oval" node-id="56" stroke="none" target-height="68.7" target-width="68.70007" target-x="985.6" target-y="28"></path></g><path d="M 815.50 169.10 L 815.20 171.90 L 814.40 174.60 L 813.10 177.10 L 811.30 179.30 L 809.00 181.10 L 806.60 182.50 L 803.90 183.30 L 801.00 183.60 L 798.20 183.30 L 795.50 182.50 L 793.00 181.10 L 790.80 179.30 L 789.00 177.10 L 787.60 174.60 L 786.80 171.90 L 786.50 169.10 L 786.80 166.30 L 787.60 163.60 L 789.00 161.10 L 790.80 158.90 L 793.00 157.00 L 795.50 155.70 L 798.20 154.90 L 801.00 154.60 L 803.90 154.90 L 806.60 155.70 L 809.00 157.00 L 811.30 158.90 L 813.10 161.10 L 814.40 163.60 L 815.20 166.30 L 815.50 169.10 Z" fill="#d59758" fill-rule="nonzero" group-id="1" id="Oval" node-id="57" stroke="none" target-height="29" target-width="29" target-x="786.5" target-y="154.6"></path><path d="M 1238.90 286.70 L 1238.60 289.10 L 1237.70 291.30 L 1236.30 293.10 L 1234.40 294.50 L 1232.30 295.40 L 1229.90 295.80 L 1227.40 295.40 L 1225.30 294.50 L 1223.50 293.10 L 1222.10 291.30 L 1221.10 289.10 L 1220.80 286.70 L 1221.10 284.30 L 1222.10 282.10 L 1223.50 280.30 L 1225.30 278.90 L 1227.40 278.00 L 1229.90 277.70 L 1232.30 278.00 L 1234.40 278.90 L 1236.30 280.30 L 1237.70 282.10 L 1238.60 284.30 L 1238.90 286.70 Z" fill="#d59758" fill-rule="nonzero" group-id="1" id="Oval" node-id="58" stroke="none" target-height="18.099976" target-width="18.099976" target-x="1220.8" target-y="277.7"></path><path d="M 105.60 525.70 L 111.40 534.60 L 115.30 539.70 L 119.60 544.40 L 124.50 549.10 L 130.10 553.90 L 136.10 558.20 L 142.60 562.20 L 149.80 565.90 L 155.40 568.20 L 161.30 570.20 L 167.60 571.90 L 174.30 573.20 L 180.90 574.00 L 188.00 574.40 L 195.40 574.20 L 203.30 573.50 L 211.00 572.20 L 219.10 570.30 L 227.60 567.70 L 236.80 564.30 L 239.00 563.10 L 240.80 561.70 L 243.60 558.00 L 245.00 553.60 L 245.10 551.30 L 244.80 548.90 L 244.10 546.60 L 242.90 544.40 L 241.50 542.50 L 239.80 541.00 L 235.70 538.80 L 231.10 538.20 L 228.80 538.50 L 226.40 539.20 L 219.10 542.00 L 212.40 544.00 L 206.10 545.50 L 200.30 546.50 L 194.20 547.00 L 188.60 547.20 L 178.50 546.30 L 172.00 544.90 L 166.20 543.10 L 160.90 540.90 L 155.80 538.30 L 151.30 535.50 L 147.30 532.70 L 141.90 528.00 L 137.70 523.70 L 134.10 519.40 L 128.90 511.70 L 129.50 512.70 L 128.10 510.70 L 126.50 509.00 L 124.60 507.60 L 120.30 505.90 L 115.70 505.80 L 113.40 506.30 L 111.10 507.30 L 109.00 508.60 L 107.30 510.30 L 104.90 514.20 L 104.00 518.70 L 104.10 521.10 L 104.70 523.40 L 105.60 525.70 Z" fill="#6e6e96" fill-rule="nonzero" group-id="1" id="Shape" node-id="59" stroke="none" target-height="68.60004" target-width="141.1" target-x="104" target-y="505.8"></path><path d="M 462.00 118.20 L 468.90 118.50 L 475.60 119.10 L 482.10 120.20 L 488.40 121.60 L 494.60 123.50 L 502.20 126.40 L 509.50 129.80 L 516.40 133.70 L 523.00 138.10 L 529.20 143.10 L 535.00 148.50 L 540.40 154.20 L 545.30 160.50 L 549.80 167.10 L 553.70 174.00 L 557.10 181.20 L 560.00 188.80 L 561.80 195.00 L 563.30 201.40 L 564.30 207.90 L 565.00 214.60 L 565.20 221.50 L 564.90 228.10 L 570.00 216.90 L 573.90 205.00 L 576.20 192.60 L 576.80 186.20 L 577.00 179.60 L 576.80 172.70 L 576.10 166.00 L 575.10 159.50 L 573.60 153.20 L 571.80 147.00 L 568.90 139.40 L 565.50 132.10 L 561.60 125.20 L 557.10 118.60 L 552.10 112.40 L 546.80 106.60 L 541.00 101.20 L 534.80 96.30 L 528.20 91.80 L 521.30 87.90 L 514.00 84.50 L 506.40 81.60 L 500.20 79.80 L 493.90 78.30 L 487.40 77.20 L 480.70 76.60 L 473.80 76.30 L 465.50 76.70 L 457.60 77.60 L 449.90 79.10 L 442.40 81.20 L 435.00 83.90 L 428.00 87.00 L 421.30 90.70 L 414.90 94.80 L 408.80 99.40 L 403.10 104.40 L 397.80 109.80 L 392.80 115.60 L 388.30 121.80 L 384.30 128.30 L 380.70 135.00 L 377.60 142.20 L 375.10 149.50 L 373.10 157.00 L 371.70 164.80 L 370.90 172.90 L 374.30 166.90 L 378.20 161.20 L 382.30 155.80 L 386.90 150.60 L 391.80 145.80 L 396.90 141.30 L 402.40 137.20 L 408.10 133.40 L 414.10 130.00 L 420.40 127.00 L 426.80 124.40 L 433.50 122.20 L 440.40 120.50 L 447.40 119.20 L 454.60 118.50 L 462.00 118.20 Z" fill="#e6e6f5" fill-rule="nonzero" group-id="1" id="Shape" node-id="60" stroke="none" target-height="151.8" target-width="206.1" target-x="370.9" target-y="76.3"></path><path d="M 258.20 42.20 L 265.10 42.40 L 271.80 43.10 L 278.30 44.10 L 284.60 45.60 L 290.80 47.50 L 298.40 50.30 L 305.70 53.70 L 312.60 57.70 L 319.20 62.10 L 325.40 67.10 L 331.20 72.40 L 336.60 78.20 L 341.50 84.50 L 346.00 91.10 L 349.90 98.00 L 353.30 105.20 L 356.20 112.80 L 358.10 119.00 L 359.50 125.40 L 360.60 131.90 L 361.20 138.60 L 361.50 145.50 L 361.10 152.10 L 366.30 140.90 L 370.10 129.00 L 372.50 116.60 L 373.10 110.20 L 373.30 103.60 L 373.00 96.70 L 372.40 90.00 L 371.30 83.50 L 369.90 77.10 L 368.00 70.90 L 365.10 63.30 L 361.70 56.10 L 357.80 49.20 L 353.40 42.60 L 348.40 36.40 L 343.00 30.60 L 337.20 25.20 L 331.00 20.20 L 324.40 15.80 L 317.50 11.90 L 310.30 8.50 L 302.70 5.60 L 296.50 3.70 L 290.10 2.30 L 283.60 1.20 L 276.90 0.60 L 270.00 0.30 L 261.80 0.70 L 253.80 1.60 L 246.10 3.10 L 238.60 5.20 L 231.30 7.90 L 224.20 11.00 L 217.50 14.70 L 211.10 18.80 L 205.00 23.40 L 199.30 28.40 L 194.00 33.80 L 189.00 39.60 L 184.50 45.80 L 180.50 52.20 L 177.00 59.00 L 173.90 66.20 L 171.30 73.50 L 169.30 81.00 L 167.90 88.80 L 167.10 96.90 L 170.60 90.90 L 174.40 85.20 L 178.60 79.80 L 183.10 74.60 L 188.00 69.80 L 193.10 65.30 L 198.60 61.20 L 204.40 57.30 L 210.30 53.90 L 216.60 50.90 L 223.00 48.40 L 229.80 46.20 L 236.60 44.50 L 243.60 43.20 L 250.80 42.50 L 258.20 42.20 Z" fill="#e6e6f5" fill-rule="nonzero" group-id="1" id="Shape" node-id="61" stroke="none" target-height="151.8" target-width="206.19998" target-x="167.1" target-y="0.3"></path></g></svg>